<svg width="25" height="25" viewBox="0 0 25 25" fill="none" xmlns="http://www.w3.org/2000/svg">
    <path d="M0 1.07143C0 0.4797 0.4797 0 1.07143 0H1.86894C3.22676 0 4.03974 0.912843 4.50464 1.76141C4.81452 2.32706 5.03869 2.98311 5.21403 3.57707C5.26151 3.57334 5.30963 3.57143 5.35829 3.57143H23.2116C24.3976 3.57143 25.254 4.70631 24.9289 5.84686L22.3177 15.0027C21.8366 16.6903 20.2946 17.854 18.5399 17.854H10.0425C8.27326 17.854 6.72229 16.6713 6.25404 14.9651L5.16763 11.0064L3.36963 4.93683L3.36671 4.9262C3.14429 4.11501 2.93553 3.35721 2.62533 2.791C2.32409 2.24114 2.08396 2.14286 1.86894 2.14286H1.07143C0.4797 2.14286 0 1.66316 0 1.07143ZM9.28572 25C10.8637 25 12.1429 23.7209 12.1429 22.1429C12.1429 20.5649 10.8637 19.2857 9.28572 19.2857C7.70776 19.2857 6.42857 20.5649 6.42857 22.1429C6.42857 23.7209 7.70776 25 9.28572 25ZM19.2857 25C20.8637 25 22.1429 23.7209 22.1429 22.1429C22.1429 20.5649 20.8637 19.2857 19.2857 19.2857C17.7077 19.2857 16.4286 20.5649 16.4286 22.1429C16.4286 23.7209 17.7077 25 19.2857 25Z" fill="#CD1F45"/>
</svg>
