<svg width="24" height="25" viewBox="0 0 24 25" fill="none" xmlns="http://www.w3.org/2000/svg">
    <path d="M9.67972 0.679896C10.7542 -0.226632 12.3257 -0.226632 13.4002 0.679896L22.0552 7.98154C22.705 8.5297 23.0799 9.33652 23.0799 10.1866V22.7561C23.0799 23.9954 22.0753 25 20.836 25H16.9894C15.7501 25 14.7455 23.9954 14.7455 22.7561V16.345C14.7455 15.8139 14.3149 15.3834 13.7838 15.3834H9.29608C8.76497 15.3834 8.33441 15.8139 8.33441 16.345V22.7561C8.33441 23.9954 7.3298 25 6.09053 25H2.24388C1.00462 25 0 23.9954 0 22.7561V10.1866C0 9.33652 0.374933 8.5297 1.0247 7.98154L9.67972 0.679896Z" fill="#9B9B9B"/>
</svg>
