<svg width="21" height="25" viewBox="0 0 21 25" fill="none" xmlns="http://www.w3.org/2000/svg">
    <path d="M17.1914 14.9968C18.7442 14.9968 20.0029 16.2556 20.0029 17.8085V18.9567C20.0029 19.6735 19.7789 20.3724 19.3621 20.9556C17.4295 23.6601 14.2735 25 9.99739 25C5.72039 25 2.56612 23.6596 0.638077 20.9536C0.22304 20.3712 0 19.6738 0 18.9585V17.8085C0 16.2556 1.25879 14.9968 2.81159 14.9968H17.1914ZM9.99739 0C13.4498 0 16.2485 2.79873 16.2485 6.25112C16.2485 9.70352 13.4498 12.5023 9.99739 12.5023C6.54496 12.5023 3.74625 9.70352 3.74625 6.25112C3.74625 2.79873 6.54496 0 9.99739 0Z" fill="#9B9B9B"/>
</svg>
