<svg width="32" height="25" viewBox="0 0 32 25" fill="none" xmlns="http://www.w3.org/2000/svg">
    <path d="M3.51562 0C1.574 0 0 1.574 0 3.51562V7.42188C0 9.3635 1.574 10.9375 3.51562 10.9375H7.42188C9.3635 10.9375 10.9375 9.3635 10.9375 7.42188V3.51562C10.9375 1.574 9.3635 0 7.42188 0H3.51562ZM14.4531 1.5625C13.8059 1.5625 13.2812 2.08717 13.2812 2.73438C13.2812 3.38158 13.8059 3.90625 14.4531 3.90625H30.0781C30.7253 3.90625 31.25 3.38158 31.25 2.73438C31.25 2.08717 30.7253 1.5625 30.0781 1.5625H14.4531ZM14.4531 6.25C13.8059 6.25 13.2812 6.77467 13.2812 7.42188C13.2812 8.06908 13.8059 8.59375 14.4531 8.59375H25.3906C26.0378 8.59375 26.5625 8.06908 26.5625 7.42188C26.5625 6.77467 26.0378 6.25 25.3906 6.25H14.4531ZM3.51562 14.0625C1.574 14.0625 0 15.6366 0 17.5781V21.4844C0 23.4259 1.574 25 3.51562 25H7.42188C9.3635 25 10.9375 23.4259 10.9375 21.4844V17.5781C10.9375 15.6366 9.3635 14.0625 7.42188 14.0625H3.51562ZM14.4531 15.625C13.8059 15.625 13.2812 16.1497 13.2812 16.7969C13.2812 17.4441 13.8059 17.9688 14.4531 17.9688H30.0781C30.7253 17.9688 31.25 17.4441 31.25 16.7969C31.25 16.1497 30.7253 15.625 30.0781 15.625H14.4531ZM14.4531 20.3125C13.8059 20.3125 13.2812 20.8372 13.2812 21.4844C13.2812 22.1316 13.8059 22.6562 14.4531 22.6562H25.3906C26.0378 22.6562 26.5625 22.1316 26.5625 21.4844C26.5625 20.8372 26.0378 20.3125 25.3906 20.3125H14.4531Z" fill="#9B9B9B"/>
</svg>
