<svg height="464pt" viewBox="-56 0 464 464" width="464pt" xmlns="http://www.w3.org/2000/svg"><path d="m256 0h-240c-8.800781 0-16 7.199219-16 16v432c0 8.800781 7.199219 16 16 16h288c8.800781 0 16-7.199219 16-16v-376zm0 0" fill="#e9e9e9"/><path d="m48 216h160v208h-160zm0 0" fill="#ddad6f"/><path d="m168 240h-16v-56c0-13.601562-10.398438-24-24-24s-24 10.398438-24 24v56h-16v-56c0-22.398438 17.601562-40 40-40s40 17.601562 40 40zm0 0" fill="#c9a073"/><g fill="#b4b4b5"><path d="m104 32h88v16h-88zm0 0"/><path d="m40 72h168v16h-168zm0 0"/><path d="m40 112h240v16h-240zm0 0"/><path d="m192 152h88v16h-88zm0 0"/><path d="m232 192h48v16h-48zm0 0"/><path d="m232 232h48v16h-48zm0 0"/><path d="m40 152h32v16h-32zm0 0"/></g><path d="m176 304h160c8.800781 0 16 7.199219 16 16v88c0 8.800781-7.199219 16-16 16h-160c-8.800781 0-16-7.199219-16-16v-88c0-8.800781 7.199219-16 16-16zm0 0" fill="#676b7f"/><path d="m256 56c0 8.800781 7.199219 16 16 16h48l-64-72zm0 0" fill="#b4b4b5"/><path d="m160 328h192v16h-192zm0 0" fill="#4a4a56"/><path d="m184 360h40v16h-40zm0 0" fill="#e9e9e9"/><path d="m184 384h24v16h-24zm0 0" fill="#e9e9e9"/></svg>