<?xml version="1.0" encoding="utf-8"?>
<!-- Generator: Adobe Illustrator 23.0.1, SVG Export Plug-In . SVG Version: 6.00 Build 0)  -->
<svg version="1.0" id="Calque_1" xmlns="http://www.w3.org/2000/svg" xmlns:xlink="http://www.w3.org/1999/xlink" x="0px" y="0px"
	viewBox="0 0 453.5 453.5" style="enable-background:new 0 0 453.5 453.5;" xml:space="preserve">

<g>
	<g>
		<path class="st0" style="fill:#FFFFFF"  d="M220.5,50C125.8,50,48,127.8,48,222.5S125.8,395,220.5,395S393,317.2,393,222.5S315.2,50,220.5,50z"/>
	</g>
</g>
	<g>
	<g>
		<path class="st1" style="fill:#C1272D"  d="M325.4,301.6l-17-32.1c-7.8-14.8-11.5-31.5-10.6-48.2l1.5-27.2c1.9-34.3-19.5-64.6-50.3-75.7l1-19.5
			c0.6-12-8.6-22.2-20.5-22.9c-12-0.6-22.2,8.6-22.9,20.5l-1,19.5c-31.8,7.7-56.3,35.5-58.2,69.8l-1.5,27.2
			c-0.9,16.7-6.3,32.9-15.7,46.7L109.9,290c-1.1,1.6-1.2,3.7-0.4,5.5c0.9,1.8,2.6,2.9,4.6,3l206.2,11.1c2,0.1,3.8-0.9,4.9-2.5
			C326.2,305.5,326.3,303.4,325.4,301.6z"/>
	</g>
</g>
	<g>
	<g>
		<path class="st1" style="fill:#C1272D"  d="M132.9,317.2c9,19.2,28.3,32.7,50.8,32.9s42-13,51.3-32L132.9,317.2z"/>
	</g>
</g>
</svg>
