<svg viewBox="-35 0 512 512.002" xmlns="http://www.w3.org/2000/svg">
    <path style="fill:#ffffff;" d="m426.699219 119.886719c0 4.140625 3.359375 7.5 7.5 7.5 4.144531 0 7.5-3.359375 7.5-7.5 0-66.105469-53.863281-119.886719-120.070313-119.886719-37.476562 0-70.996094 17.238281-93.03125 44.1875-9.761718-10.109375-24.136718-14.808594-38.472656-11.941406-11.007812 2.214844-20.492188 8.570312-26.710938 17.898437-6.222656 9.335938-8.429687 20.527344-6.21875 31.527344.800782 3.972656 2.164063 7.761719 4.019532 11.28125-58.863282 16.792969-100.488282 71.046875-100.488282 133.128906 0 4.140625 3.359376 7.5 7.5 7.5 4.144532 0 7.5-3.359375 7.5-7.5 0-58.789062 41.863282-109.714843 99.535157-121.101562.007812 0 .015625-.003907.023437-.003907 7.90625-1.554687 16.015625-2.339843 24.101563-2.339843 1.140625 0 2.28125.019531 3.417969.050781-.8125 5.617188-1.242188 11.359375-1.242188 17.199219 0 66.105469 53.863281 119.886719 120.066406 119.886719.472656 0 .941406-.023438 1.414063-.027344v36.265625c0 29.269531 12.917969 56.8125 35.441406 75.566406l9.023437 7.511719c9.082032 7.558594 14.292969 18.664062 14.292969 30.460937v.46875c0 21.585938-17.59375 39.144531-39.21875 39.144531h-288.363281c-21.625 0-39.21875-17.558593-39.21875-39.144531 0-5.894531 1.34375-11.808593 3.882812-17.101562 2.546876-5.3125 6.316407-10.070313 10.90625-13.765625l9.257813-7.464844c23.3125-18.765625 36.679687-46.683594 36.679687-76.585938v-16.441406c0-4.140625-3.355468-7.5-7.5-7.5-4.140624 0-7.5 3.359375-7.5 7.5v16.441406c0 25.339844-11.328124 48.996094-31.089843 64.90625l-9.257813 7.464844c-6.316406 5.082032-11.515625 11.640625-15.019531 18.957032-3.507813 7.304687-5.359375 15.464843-5.359375 23.589843 0 29.855469 24.324219 54.144531 54.222656 54.144531h78.511719c-.023437.742188-.046875 1.480469-.046875 2.21875 0 36.183594 29.480469 65.621094 65.714844 65.621094s65.710937-29.4375 65.710937-65.621094c0-.738281-.019531-1.476562-.046875-2.21875h78.519532c29.894531 0 54.21875-24.289062 54.21875-54.144531v-.46875c0-16.269531-7.179688-31.570312-19.695313-41.988281l-9.023437-7.511719c-19.089844-15.894531-30.039063-39.234375-30.039063-64.039062v-37.363281c20.386719-2.757813 39.566406-10.652344 56.1875-23.269532 20.339844-15.4375 35.480469-37.355468 42.632813-61.714844 1.167968-3.972656-1.109376-8.140624-5.082032-9.308593-3.976562-1.167969-8.144531 1.109375-9.308594 5.082031-6.253906 21.304688-19.507812 40.476562-37.3125 53.992188-18.390624 13.960937-40.359374 21.339843-63.53125 21.339843-57.9375 0-105.070312-47.050781-105.070312-104.886719 0-57.832031 47.132812-104.882812 105.066406-104.882812 57.9375 0 105.070313 47.050781 105.070313 104.886719zm-177.585938 326.496093c0 27.910157-22.75 50.617188-50.710937 50.617188-27.964844 0-50.714844-22.707031-50.714844-50.617188 0-.738281.019531-1.480468.050781-2.21875h101.324219c.035156.738282.050781 1.480469.050781 2.21875zm-49.726562-358.746093c-7.589844 0-15.191407.628906-22.671875 1.851562-2.371094-3.167969-4.019532-6.835937-4.8125-10.777343-1.421875-7.0625 0-14.25 3.992187-20.246094 4-6 10.101563-10.089844 17.179688-11.511719 10.152343-2.035156 20.347656 1.832031 26.5625 9.746094-5.957031 9.554687-10.609375 20-13.699219 31.089843-2.167969-.101562-4.359375-.152343-6.550781-.152343zm0 0"/><path style="fill:#ffffff;" d="m321.628906 172.03125c4.144532 0 7.5-3.355469 7.5-7.5v-93.445312c0-2.972657-1.75-5.660157-4.46875-6.863282-2.714844-1.199218-5.882812-.683594-8.078125 1.316406l-16.085937 14.644532c-3.0625 2.789062-3.285156 7.53125-.5 10.59375 2.789062 3.0625 7.53125 3.285156 10.597656.496094l3.535156-3.21875v76.476562c0 4.144531 3.359375 7.5 7.5 7.5zm0 0"/>
</svg>