<?xml version="1.0" encoding="utf-8"?>
<!-- Generator: Adobe Illustrator 21.0.0, SVG Export Plug-In . SVG Version: 6.00 Build 0)  -->
<svg version="1.1" id="Capa_1" xmlns="http://www.w3.org/2000/svg" xmlns:xlink="http://www.w3.org/1999/xlink" x="0px" y="0px"
	 viewBox="0 0 512 512" style="enable-background:new 0 0 512 512;" xml:space="preserve">
<path style="fill:#FFFFFF" d="M84.7,289.2h89.8c4.1,0,7.5-3.4,7.5-7.5c0-4.1-3.4-7.5-7.5-7.5H84.7c-4.1,0-7.5,3.4-7.5,7.5
	C77.2,285.8,80.6,289.2,84.7,289.2z"/>
<path style="fill:#FFFFFF" d="M227.4,329.3H84.7c-4.1,0-7.5,3.4-7.5,7.5c0,4.1,3.4,7.5,7.5,7.5h142.6c4.1,0,7.5-3.4,7.5-7.5
	C234.9,332.6,231.5,329.3,227.4,329.3z"/>
<path style="fill:#FFFFFF" d="M227.4,384.3H84.7c-4.1,0-7.5,3.4-7.5,7.5c0,4.1,3.4,7.5,7.5,7.5h142.6c4.1,0,7.5-3.4,7.5-7.5
	C234.9,387.7,231.5,384.3,227.4,384.3z"/>
<path style="fill:#FFFFFF" d="M462.1,49.5C430.2,17.6,387.9,0,343.1,0h-43.2C245,0,193.4,27.1,161.7,72.5c-2.4,3.4-1.5,8.1,1.9,10.5
	c3.4,2.4,8.1,1.5,10.5-1.9C202.9,39.7,249.9,15,299.9,15h43.2c40.8,0,79.3,16,108.3,45.1c29.1,29.1,45.1,67.5,45.1,108.3
	c0,59.4-35,114-89.2,139.2c-3.5,1.6-6.7,3.9-9.4,6.7l-50.9,52v-29c0-8.6-7-15.5-15.5-15.5h-20.3c-1-12.4-3.7-24.3-7.8-35.6
	c40.2-9.4,70.3-45.5,70.3-88.5c0-50.1-40.8-90.9-90.9-90.9c-49.7,0-90.2,40.1-90.9,89.6c-6-0.8-12.1-1.2-18.3-1.2h-24.7
	c-1.6-8.8-2.4-17.7-2.4-26.8c0-17.6,3-35,8.9-51.5l2.5-6.4c1.5-3.9-0.4-8.2-4.3-9.7c-3.9-1.5-8.2,0.4-9.7,4.3l-2.5,6.5
	c0,0.1,0,0.1-0.1,0.2c-6.5,18.2-9.9,37.2-9.9,56.6c0,9.1,0.7,18.1,2.2,26.9c-73.9,2.6-133.2,63.5-133.2,138
	c0,53.1,31.2,102.1,79.5,124.9c1.9,0.9,3.6,2.1,5.1,3.6l46,47c2,2.1,4.7,3.2,7.5,3.2c1.3,0,2.7-0.3,4-0.8c4-1.6,6.5-5.4,6.5-9.7
	v-29.6c0-0.3,0.2-0.5,0.5-0.5h24c50.2,0,96.6-27.5,121-71.8c0-0.1,0.1-0.1,0.1-0.2c0.4-0.7,3.5-6.8,4.5-8.9c1.7-3.8,0-8.2-3.8-9.9
	c-3.8-1.7-8.2,0-9.9,3.8c-0.6,1.3-2.8,5.6-4.1,8c-21.8,39.4-63.1,63.9-107.8,63.9h-24c-8.6,0-15.5,7-15.5,15.5v18.6l-38.3-39.1
	c-2.7-2.8-5.9-5-9.4-6.7c-43-20.3-70.9-64.1-70.9-111.4c0-32.7,12.8-63.6,36.2-86.9s54.2-36.2,86.9-36.2h35c6.5,0,13,0.5,19.3,1.5
	c6.8,43.5,44.5,76.9,89.8,76.9c1.8,0,3.6-0.1,5.4-0.2c5.6,14.1,8.5,29.3,8.5,44.8c0,7.3-0.7,14.7-2,21.9c-0.7,4.1,2,8,6,8.7
	c4.1,0.7,8-2,8.7-6c1.3-6.9,2-13.9,2.2-21h19.8c0.3,0,0.5,0.2,0.5,0.5v40c0,4.3,2.6,8.1,6.5,9.7c1.3,0.5,2.6,0.8,4,0.8
	c2.8,0,5.5-1.1,7.5-3.2l58.7-59.9c1.5-1.5,3.2-2.7,5-3.6c59.5-27.6,97.9-87.6,97.9-152.9C511.5,123.6,494,81.4,462.1,49.5
	L462.1,49.5z M282.7,273.6c-41.8,0-75.9-34-75.9-75.9s34-75.9,75.9-75.9s75.9,34,75.9,75.9S324.6,273.6,282.7,273.6z"/>
<g>
	<path style="fill:#FFFFFF" d="M291.1,220.7c1.7,0.5,3.1,1.5,4.4,2.9c1.3,1.4,2.1,2.9,2.6,4.5c0.5,1.6,0.4,3-0.3,4.4c-0.6,1.4-2,2.2-4.1,2.6
		c-4,0.7-8.2,1-12.5,0.9c-4.3,0-8.3-0.1-12.1-0.2c-2.6,0-4.4-0.8-5.4-2.4c-1-1.6-1.3-3.3-0.9-5.2c0.4-1.9,1.4-3.6,3.1-5.2
		c1.7-1.6,3.8-2.3,6.4-2.3v-45.8c-1.1,0.3-2.2,0.2-3.3-0.2c-1.1-0.4-2.1-0.9-2.9-1.7c-0.8-0.8-1.5-1.7-2-2.7c-0.5-1-0.6-2.1-0.4-3.2
		c0.3-1.8,1.2-3.7,2.8-5.7c1.6-1.9,3.5-3.5,5.7-4.8c2.2-1.3,4.4-2,6.7-2.3c2.3-0.3,4.3,0.3,6,1.8c0.7,0.5,1.3,1.2,1.8,2.1
		c0.5,0.9,0.8,1.8,0.8,2.5c0.1,10.1,0.1,20.1,0.1,30c0,9.9-0.1,19.9-0.1,29.9H291.1z"/>
</g>
</svg>
