<?xml version="1.0"?>
<svg xmlns="http://www.w3.org/2000/svg" viewBox="0 0 256 256" width="512" height="512"><path d="M137.07,12.59A115.4,115.4,0,0,0,22.01,118.25H9.072A5.569,5.569,0,0,0,4.249,126.6l23.677,41a5.569,5.569,0,0,0,9.646,0l23.672-41a5.569,5.569,0,0,0-4.823-8.354H44.4a93.125,93.125,0,1,1,30.95,79.54,11.14,11.14,0,0,0-14.77,16.68A115.085,115.085,0,0,0,137,243.41h.07a115.41,115.41,0,0,0,0-230.82Z" fill="#f0c020"/><path d="M150.576,118.232H123.865a7.223,7.223,0,0,1,0-14.446h43.7a9.763,9.763,0,0,0,0-19.525H146.982v-11a9.763,9.763,0,0,0-19.525,0v11h-3.592a26.748,26.748,0,0,0,0,53.5h26.711a7.223,7.223,0,0,1,0,14.445h-43.7a9.763,9.763,0,0,0,0,19.525h20.577v11.012a9.763,9.763,0,0,0,19.525,0V171.726h3.594a26.747,26.747,0,0,0,0-53.494Z" fill="#13bf6d"/><path d="M137.07,234.91a106.528,106.528,0,0,1-58.7-17.5,2.5,2.5,0,0,1,2.746-4.179,101.918,101.918,0,1,0-45.649-93.856,2.5,2.5,0,1,1-4.982-.415A106.916,106.916,0,1,1,137.07,234.91ZM68.51,210.083q-1.161-.97-2.294-1.976a2.62,2.62,0,0,1-.241-3.7,2.462,2.462,0,0,1,3.616-.138,18.735,18.735,0,0,0,2.126,1.98,2.5,2.5,0,1,1-3.207,3.835Z" fill="#f9e5af"/><path d="M110.363,159.75H107.22a2.5,2.5,0,0,0,0,5h3.143a2.5,2.5,0,0,0,0-5Z" fill="#76ffba"/><path d="M150.748,126.807H125a15.279,15.279,0,0,1,0-30.557H166.22a2.5,2.5,0,1,0,0-5h-26.5V74.75a2.5,2.5,0,0,0-5,0v16.5H125a20.279,20.279,0,0,0,0,40.557h25.75a13.972,13.972,0,1,1,0,27.943H120.363a2.5,2.5,0,0,0,0,5H134.72v16.5a2.5,2.5,0,0,0,5,0v-16.5h11.028a18.972,18.972,0,1,0,0-37.943Z" fill="#76ffba"/><path d="M25.762,168.86a8.069,8.069,0,0,0,13.97,0l23.681-41.01a8.079,8.079,0,0,0-6.991-12.1h-9.21C53.4,69.909,93.063,37.306,137.2,37.35a90.545,90.545,0,0,1,25.8,3.8,2.55,2.55,0,0,0,3.11-1.68,2.5,2.5,0,0,0-1.68-3.11,95.847,95.847,0,0,0-27.39-4.044C89.534,32.275,47.1,68.041,41.913,117.99a2.5,2.5,0,0,0,2.489,2.76h12.02a3.076,3.076,0,0,1,2.66,4.6l-23.68,41a3.059,3.059,0,0,1-5.31,0l-23.679-41a3.073,3.073,0,0,1,2.659-4.6h12.94a2.518,2.518,0,0,0,2.49-2.29C29.3,60.845,78.318,15.09,137.072,15.09c61.671,0,112.86,49.9,112.86,112.84a112.463,112.463,0,0,1-41.979,87.93,2.5,2.5,0,1,0,3.139,3.89C241.94,194.774,255.4,161.072,255,128c-.737-61-47.926-117.91-118.037-117.91A117.891,117.891,0,0,0,19.732,115.75H9.072a8.067,8.067,0,0,0-6.98,12.11Z"/><path d="M172.152,44.42c0,.01.011.01.011.01a2.5,2.5,0,0,0,1.939-4.61.01.01,0,0,1-.01-.01,2.56,2.56,0,0,0-3.27,1.34A2.5,2.5,0,0,0,172.152,44.42Z"/><path d="M200.082,221.67a2.5,2.5,0,1,0,3.47.68A2.553,2.553,0,0,0,200.082,221.67Z"/><path d="M57.762,197.09a13.621,13.621,0,0,0,1.16,19.25A117.588,117.588,0,0,0,137,245.91h.07a117.363,117.363,0,0,0,57.1-14.75,2.508,2.508,0,0,0,.97-3.4,2.559,2.559,0,0,0-3.4-.97,112.967,112.967,0,0,1-54.671,14.12H137A112.572,112.572,0,0,1,62.243,212.6a8.639,8.639,0,0,1,11.449-12.94A95.643,95.643,0,1,0,183.332,44.3a2.56,2.56,0,0,0-3.4.98,2.5,2.5,0,0,0,.981,3.39c0,.01,0,.01.009.01A90.647,90.647,0,1,1,77,195.92,13.644,13.644,0,0,0,57.762,197.09Z"/><path d="M175.122,134.07a2.494,2.494,0,0,0,.95-3.4,2.565,2.565,0,0,0-3.4-.96,2.507,2.507,0,0,0-.96,3.4v.01A2.512,2.512,0,0,0,175.122,134.07Z"/><path d="M150.572,149.7h-43.69a12.265,12.265,0,1,0,0,24.53h18.071v8.51a12.265,12.265,0,0,0,24.529,0v-8.51h1.09a29.3,29.3,0,0,0,29.25-29.25,28.453,28.453,0,0,0-.28-4.01,2.5,2.5,0,1,0-4.95.68,24.248,24.248,0,0,1-24.02,27.58h-3.59a2.5,2.5,0,0,0-2.5,2.5v11.01a7.265,7.265,0,0,1-14.529,0V171.73a2.493,2.493,0,0,0-2.5-2.5H106.882a7.265,7.265,0,1,1,0-14.53h43.69a9.72,9.72,0,1,0,0-19.44h-26.71a24.25,24.25,0,0,1,0-48.5h3.591a2.493,2.493,0,0,0,2.5-2.5v-11a7.265,7.265,0,0,1,14.529,0v11a2.5,2.5,0,0,0,2.5,2.5h20.58a7.265,7.265,0,0,1,0,14.53h-43.7a9.72,9.72,0,0,0,0,19.44h26.71a23.935,23.935,0,0,1,15.341,5.49,2.58,2.58,0,0,0,3.519-.35,2.49,2.49,0,0,0-.35-3.52,29.25,29.25,0,0,0-18.51-6.62h-26.71a4.72,4.72,0,0,1,0-9.44h43.7a12.265,12.265,0,0,0,0-24.53h-18.08v-8.5a12.265,12.265,0,0,0-24.529,0v8.5h-1.091a29.25,29.25,0,0,0,0,58.5h26.71a4.72,4.72,0,1,1,0,9.44Z"/></svg>
