<svg width="34" height="33" viewBox="0 0 34 33" fill="none" xmlns="http://www.w3.org/2000/svg">
    <path d="M23.5537 11.0558C24.876 9.63253 26.1484 8.42475 27.0248 7.78263C27.0362 7.77027 27.8488 7.19408 28.1628 7.04849C28.6269 6.85012 29.1539 6.82663 29.6449 6.97863C30.0225 7.11588 30.3507 7.33716 30.6292 7.63694C30.9078 7.96162 31.2656 8.75057 31.3925 9.07682C32.2621 11.1916 33.1737 16.0414 33.1162 18.3397C33.1175 18.7176 33.096 19.1506 33.0968 19.2585C33.0361 19.7867 32.8144 20.2708 32.4532 20.6596C32.1277 21.0099 31.7025 21.2501 31.2374 21.3128C31.0044 21.3545 30.6126 21.36 30.4313 21.3601L30.3338 21.3596C28.1357 21.439 23.7814 20.4286 21.8905 19.5749C21.8788 19.5875 20.936 19.1612 20.4768 18.786L20.3646 18.6853L20.3141 18.6309C19.7311 18.0035 19.5113 17.0689 19.7574 16.2045C19.893 15.7322 20.5878 14.6832 20.5876 14.6555C21.2216 13.7277 22.2939 12.4118 23.5537 11.0558ZM12.066 23.5643C12.5886 23.0017 13.4176 22.9678 13.9908 23.4581L14.1182 23.5806L19.3914 28.6546C20.1193 29.4382 20.128 30.6977 19.4107 31.4697C18.7382 32.1936 17.6666 32.2319 16.9354 31.5882L16.7939 31.4503L12.0811 25.7732C11.5099 25.1583 11.5031 24.1701 12.066 23.5643ZM1.28601 11.9466C1.60893 11.599 2.03417 11.3588 2.49918 11.2933C2.69423 11.2594 2.99894 11.2502 3.20004 11.248L3.40407 11.2479C5.60225 11.1713 9.95644 12.1788 11.8473 13.0326C11.8578 13.0212 12.8027 13.4476 13.2622 13.8228L13.3745 13.9235L13.425 13.9779C14.0066 14.6039 14.2252 15.5398 13.9804 16.4029C13.8461 16.8765 13.1499 17.9242 13.1501 17.9519C12.5161 18.8796 11.4438 20.1956 10.184 21.5515C8.86171 22.9748 7.58934 24.1826 6.71298 24.8247C6.70021 24.8385 5.88896 25.4133 5.57494 25.5589C5.11214 25.7586 4.58383 25.7807 4.0929 25.6287C3.71522 25.4915 3.38711 25.2702 3.1099 24.9718C2.82993 24.6458 2.47351 23.8582 2.34527 23.5334C1.47569 21.4159 0.562948 16.5675 0.623044 14.2692C0.620442 13.89 0.641902 13.457 0.641161 13.349C0.700551 12.8222 0.923522 12.3368 1.28601 11.9466ZM14.3275 1.13753C15 0.413694 16.0705 0.376639 16.8015 1.0205L16.943 1.15835L21.6572 6.83423C22.2285 7.44912 22.2352 8.43734 21.6724 9.04319C21.1497 9.60578 20.3207 9.63966 19.7476 9.14932L19.6201 9.02686L14.3456 3.95409C13.6176 3.17049 13.6102 1.90962 14.3275 1.13753Z" fill="#FDDA36"/>
</svg>
