<svg height="512" viewBox="0 0 256 256" width="512" xmlns="http://www.w3.org/2000/svg"><path d="m150.315 92.576-20.676-14.89v15.714h-23.953v-48.655a11.476 11.476 0 0 0 -11.467-11.468h-76.751a11.476 11.476 0 0 0 -11.468 11.468v135.293h99.685v-57.262h23.953v15.71l20.677-14.886 21.527-15.509z" fill="#13bf6d"/><g fill="#f0c020"><path d="m141.551 24.943c-3.868-1.278-7.862-2.4-10.1-12.056-2.066 8.9-5.375 10.493-10.105 12.056 7.715 2.549 8.879 6.77 10.105 12.055 2.109-9.111 5.606-10.57 10.1-12.055z"/><path d="m131.446 216.4c-3.868-1.278-7.862-2.395-10.105-12.055-2.065 8.9-5.374 10.492-10.1 12.055 7.714 2.549 8.878 6.77 10.1 12.056 2.114-9.108 5.611-10.568 10.105-12.056z"/><path d="m164.117 231.051c-3.867-1.278-7.862-2.395-10.1-12.055-2.066 8.9-5.375 10.492-10.105 12.055 7.715 2.549 8.879 6.77 10.105 12.056 2.11-9.107 5.606-10.571 10.1-12.056z"/></g><path d="m250 180.039v13a11.47 11.47 0 0 1 -11.466 11.461h-76.754a11.47 11.47 0 0 1 -11.466-11.466v-13z" fill="#efefef"/><path d="m250 44.745v135.293h-99.685v-56.438l21.527-15.509-21.527-15.51v-47.836a11.476 11.476 0 0 1 11.467-11.468h76.751a11.476 11.476 0 0 1 11.467 11.468z" fill="#f0c020"/><path d="m105.686 180.039v13a11.47 11.47 0 0 1 -11.466 11.461h-76.754a11.47 11.47 0 0 1 -11.466-11.466v-13z" fill="#afafaf"/><path d="m162.749 104.033a2.5 2.5 0 0 1 -2.5-2.5v-52.472a2.5 2.5 0 0 1 5 0v52.472a2.5 2.5 0 0 1 -2.5 2.5z" fill="#f9e5af"/><path d="m237.115 167.521h-9.749a2.5 2.5 0 0 1 0-5h9.749a2.5 2.5 0 0 1 0 5zm-19.749 0h-54.617a2.5 2.5 0 0 1 -2.5-2.5v-50.382a2.5 2.5 0 1 1 5 0v47.882h52.117a2.5 2.5 0 0 1 0 5z" fill="#f9e5af"/><path d="m92.8 167.517h-4a2.5 2.5 0 0 1 0-5h4a2.5 2.5 0 1 1 0 5zm-14 0h-60.371a2.5 2.5 0 0 1 -2.5-2.5v-115.957a2.5 2.5 0 0 1 5 0v113.457h57.871a2.5 2.5 0 1 1 0 5z" fill="#76ffba"/><path d="m133.976 12.3a2.6 2.6 0 0 0 -5.06 0c-1.862 8.019-4.459 8.878-8.389 10.177a2.6 2.6 0 0 0 0 4.932c6.529 2.157 7.269 5.347 8.389 10.176a2.6 2.6 0 0 0 5.06 0c1.86-8.019 4.6-8.924 8.389-10.176a2.6 2.6 0 0 0 0-4.933c-3.641-1.199-6.485-1.976-8.389-10.176zm-2.478 17a13.493 13.493 0 0 0 -4.066-4.3 12.877 12.877 0 0 0 4.024-4.529 13.252 13.252 0 0 0 3.884 4.494 12.843 12.843 0 0 0 -3.84 4.335z"/><path d="m118.811 229.046a2.6 2.6 0 0 0 5.061 0c1.86-8.02 4.6-8.925 8.389-10.177a2.6 2.6 0 0 0 0-4.932c-3.642-1.2-6.486-1.975-8.39-10.177a2.6 2.6 0 0 0 -5.059 0c-1.863 8.02-4.459 8.878-8.39 10.177a2.6 2.6 0 0 0 0 4.932c6.529 2.157 7.269 5.348 8.389 10.177zm2.54-17.112a13.259 13.259 0 0 0 3.884 4.493 12.852 12.852 0 0 0 -3.842 4.335 13.492 13.492 0 0 0 -4.066-4.3 12.873 12.873 0 0 0 4.024-4.528z"/><path d="m151.482 243.694a2.6 2.6 0 0 0 5.061 0c1.86-8.02 4.6-8.924 8.389-10.176a2.6 2.6 0 0 0 0-4.933c-3.641-1.2-6.486-1.975-8.39-10.177a2.6 2.6 0 0 0 -5.059 0c-1.862 8.02-4.459 8.878-8.39 10.177a2.6 2.6 0 0 0 0 4.933c6.529 2.156 7.269 5.347 8.389 10.176zm2.54-17.112a13.259 13.259 0 0 0 3.884 4.493 12.853 12.853 0 0 0 -3.842 4.335 13.481 13.481 0 0 0 -4.066-4.3 12.863 12.863 0 0 0 4.024-4.528z"/><circle cx="86.03" cy="33.28" r="2.5"/><path d="m238.53 30.78h-76.75a13.979 13.979 0 0 0 -13.96 13.96v42.965l-16.72-12.045a2.5 2.5 0 0 0 -3.96 2.029v13.2h-18.95v-46.149a13.991 13.991 0 0 0 -11.78-13.79 2.5 2.5 0 1 0 -.78 4.94 9.022 9.022 0 0 1 7.56 8.85v48.66a2.492 2.492 0 0 0 2.5 2.491h23.95a2.5 2.5 0 0 0 2.5-2.491v-10.831l35.43 25.521-35.43 25.51v-10.82a2.5 2.5 0 0 0 -2.5-2.5h-23.95a2.488 2.488 0 0 0 -2.5 2.5v54.76h-94.69v-132.8a9 9 0 0 1 8.97-8.96h58.56a2.5 2.5 0 0 0 .02-5h-58.58a13.994 13.994 0 0 0 -13.97 13.96v148.29a13.99 13.99 0 0 0 13.97 13.97h7.76a2.5 2.5 0 0 0 0-5h-7.76a9 9 0 0 1 -8.97-8.97v-10.49h94.68l.01 10.49a9.007 9.007 0 0 1 -8.97 8.97h-48.99a2.5 2.5 0 1 0 0 5h48.99a13.982 13.982 0 0 0 13.96-13.97c0-.607.01-9.313.01-67.76h18.95v13.209a2.5 2.5 0 0 0 3.96 2.031l16.72-12.045v16.555a2.5 2.5 0 1 0 5 0c0-.01 0-.01-.01-.02v-20.12l20.49-14.771a2.493 2.493 0 0 0 0-4.049l-20.49-14.77v-46.55a9.012 9.012 0 0 1 8.97-8.96h76.75a9 9 0 0 1 8.97 8.96v132.8h-94.69v-12.52a2.5 2.5 0 1 0 -4.99 0v14.965c0 .018-.006.035-.006.053v13a13.982 13.982 0 0 0 13.966 13.962h76.754a13.982 13.982 0 0 0 13.966-13.966v-148.294a13.988 13.988 0 0 0 -13.97-13.96zm8.97 162.254a8.976 8.976 0 0 1 -8.966 8.966h-76.754a8.976 8.976 0 0 1 -8.966-8.966v-10.494h94.686z"/><path d="m150.32 157.52a2.5 2.5 0 1 0 -2.5-2.5 2.5 2.5 0 0 0 2.5 2.5z"/><path d="m193.44 194.77h13.44a2.5 2.5 0 0 0 0-5h-13.44a2.5 2.5 0 0 0 0 5z"/><path d="m233.565 51.56a2.5 2.5 0 0 0 0-5h-11.9a2.5 2.5 0 0 0 0 5z"/><path d="m216.142 83.908a2.5 2.5 0 0 0 -3.5.509l-12.487 16.732-12.484-16.732a2.5 2.5 0 1 0 -4.007 2.99l11.509 15.423h-8.207a2.5 2.5 0 0 0 0 5h10.691v8.054h-10.691a2.5 2.5 0 0 0 0 5h10.691v6.524a2.5 2.5 0 0 0 5 0v-6.524h10.691a2.5 2.5 0 0 0 0-5h-10.691v-8.054h10.691a2.5 2.5 0 0 0 0-5h-8.206l11.508-15.423a2.5 2.5 0 0 0 -.508-3.499z"/><path d="m62.56 194.77a2.5 2.5 0 0 0 0-5h-13.44a2.5 2.5 0 0 0 0 5z"/><circle cx="35.23" cy="204.5" r="2.5"/><path d="m74.847 49.06a2.5 2.5 0 0 0 2.5 2.5h11.9a2.5 2.5 0 0 0 0-5h-11.9a2.5 2.5 0 0 0 -2.5 2.5z"/><path d="m60.609 104.16h-9.532a6.06 6.06 0 1 1 .063-12.12h9.128a8.2 8.2 0 0 1 6.747 3.793 2.5 2.5 0 0 0 4.212-2.695 13.081 13.081 0 0 0 -10.94-6.1h-1.944v-5.803a2.5 2.5 0 0 0 -5 0v5.805h-2.184a11.06 11.06 0 1 0 -.082 22.12h9.532a6.06 6.06 0 1 1 -.063 12.12h-9.96a8.1 8.1 0 0 1 -6.148-2.981 2.5 2.5 0 0 0 -3.842 3.2 13.1 13.1 0 0 0 9.971 4.782h2.776v5.805a2.5 2.5 0 0 0 5 0v-5.806h2.269a11.06 11.06 0 0 0 0-22.12z"/></svg>