<?xml version="1.0" encoding="utf-8"?>
<!-- Generator: Adobe Illustrator 23.0.1, SVG Export Plug-In . SVG Version: 6.00 Build 0)  -->
<svg version="1.0" id="Calque_1" xmlns="http://www.w3.org/2000/svg" xmlns:xlink="http://www.w3.org/1999/xlink" x="0px" y="0px"
	 viewBox="0 0 453.5 453.5" style="enable-background:new 0 0 453.5 453.5;" xml:space="preserve">
<g>
	<g>
		<path class="st0" style="fill:#EF983B;"  d="M126.3,50.2H71.5c-22.4,0-40.5,16.6-40.5,37c0.1,4.9,4.4,8.8,9.6,8.8h116.6c5.2,0.1,9.5-3.8,9.6-8.8
			C166.8,66.8,148.7,50.2,126.3,50.2z"/>
		<path class="st1" style="fill:#8C3F07;"  d="M48.5,125.2h100.8c5.6,0,10.1,4.3,10.1,9.5v3.7c0,5.3-4.5,9.5-10.1,9.5H48.5c-5.6,0-10.1-4.3-10.1-9.5v-3.7
			C38.4,129.5,42.9,125.2,48.5,125.2z"/>
		<path class="st0" style="fill:#EF983B;"  d="M157.2,148c5.2-0.1,9.5,3.8,9.6,8.8c0,20.4-18.1,37-40.5,37H71.5c-22.4,0-40.5-16.6-40.5-37
			c0.1-4.9,4.4-8.8,9.6-8.8H157.2z"/>
		<path class="st2" style="fill:#EF3829;"  d="M84.8,125.3v10.1c0,3.5,3.1,6.4,6.8,6.4c0,0,0.3,0,0.3,0h4.9c3.7,0,6.8,2.9,6.8,6.5c0,0,0,0,0,0v2.1
			c0,3.6,3,6.5,6.8,6.5c3.7,0,6.8,2.9,6.8,6.5c0,0,0,0,0,0v7.8c0,3.6,3,6.5,6.8,6.5c0,0-0.1,0-0.1,0h2.3c3.8,0,6.8-2.9,6.8-6.4v0
			v-27.9c0-3.6,3.1-6.4,6.8-6.4h0.9c3.8,0,6.8-2.9,6.8-6.4c0,0,0-0.1,0-0.1v-5L84.8,125.3z"/>
		<path class="st2" style="fill:#EF3829;"  d="M57.2,125.2v27.1c0,3.4,2.9,6.2,6.5,6.2c0,0,0,0,0,0h2.1c3.6,0,6.5-2.8,6.5-6.2v0v-27.1H57.2z"/>
		<path class="st3" style="fill:#64BC0F;"  d="M174.9,110.7c-0.8-4.9-8.1-11.7-13.1-15.8c-1.4,0.7-3,1.1-4.6,1.1H40.7c-1.6,0-3.2-0.4-4.6-1.1
			c-5,4.2-12.3,11-13.1,15.8c-1.3,7.5,13.7-5.5,21.2-5.5c5.1,0,7.9,7.8,15,7.8c9.9,0,12.8-6.4,20.6-6.4c8.5,0,9.4,6.4,19.1,6.4
			s10.5-6.4,19.1-6.4c7.8,0,10.7,6.4,20.6,6.4c7.2,0,10-7.8,15-7.8C161.2,105.2,176.1,118.2,174.9,110.7z"/>
		<path class="st1" style="fill:#8C3F07;"  d="M153.6,105.1c-5.1,0-7.9,7.8-15,7.8c-9.9,0-12.8-6.4-20.6-6.4c-8.5,0-9.4,6.4-19.1,6.4s-10.5-6.4-19.1-6.4
			c-7.8,0-10.7,6.4-20.6,6.4c-7.2,0-10-7.8-15-7.8c-1.1,0-2.2,0.2-3.3,0.6c-1.6,1.7-2.4,3.9-2.4,6.2v3.8c0,5.3,4.5,9.5,10.1,9.5h0
			h100.8c5.6,0,10.1-4.3,10.1-9.5v0v-3.8c0-2.3-0.9-4.5-2.4-6.2C155.8,105.3,154.7,105.1,153.6,105.1L153.6,105.1z"/>
		<g>
			<path class="st4" style="fill:#422002;"  d="M177.1,110.3c-0.7-3.9-4.6-9.1-11.7-15.3c2.3-2,3.6-4.9,3.6-7.8c0-21.6-19.2-39.2-42.8-39.2h-6.4
				c-1.2,0-2.2,0.8-2.4,1.9c-0.2,1.3,0.9,2.5,2.3,2.5h6.6c21.1,0,38.2,15.6,38.2,34.9c-0.1,3.7-3.3,6.7-7.3,6.6H40.6
				c-3.9,0.1-7.2-2.9-7.3-6.6c0-19.2,17.1-34.9,38.2-34.9h37.2c1.2,0,2.2-0.8,2.4-1.9c0.2-1.3-0.9-2.5-2.3-2.5H71.5
				c-23.6,0-42.8,17.6-42.8,39.2c0,3,1.3,5.8,3.6,7.8c-7.1,6.2-11.1,11.4-11.7,15.3c-0.4,2.5,0.5,3.7,1.4,4.2
				c2.5,1.6,5.9-0.2,11.2-2.9c1-0.5,2-1,3-1.6c-0.1,0.6-0.2,1.2-0.2,1.9v3.7c0,3.8,1.9,7.3,5.2,9.5c-3.3,2.2-5.2,5.7-5.2,9.5v3.8
				c0,2.7,1,5.4,2.8,7.5c-5.8,0.7-10.1,5.3-10.2,10.8c0,21.6,19.2,39.2,42.8,39.2l5.1,0c1.2,0,2.2-0.8,2.4-1.9
				c0.2-1.3-0.9-2.5-2.3-2.5h-5.1c-21.1,0-38.2-15.6-38.2-34.9c0.1-3.7,3.3-6.7,7.3-6.6h14.2v2.3c0,4.6,4,8.3,8.8,8.3h2.1
				c4.9,0,8.8-3.7,8.8-8.3v-2h26.7v0.1c0,4.8,4,8.6,9,8.6c2.5,0,4.5,1.9,4.5,4.3v7.6c0,4.8,4.1,8.6,9.1,8.6h2.2c5,0,9.1-3.9,9.1-8.6
				v-21h22c3.9-0.1,7.2,2.9,7.3,6.6c0,19.2-17.1,34.9-38.2,34.9h-21.4c-1.2,0-2.2,0.8-2.4,1.9c-0.2,1.3,0.9,2.5,2.3,2.5h21.4
				c23.6,0,42.8-17.6,42.8-39.2c-0.1-5.5-4.4-10.1-10.2-10.8c1.8-2.1,2.8-4.7,2.8-7.5v-3.7c0-3.8-1.9-7.3-5.2-9.5
				c3.3-2.2,5.2-5.7,5.2-9.5V112c0-0.6-0.1-1.3-0.2-1.9c1,0.5,2.1,1.1,3,1.6c3.9,2,6.8,3.5,9,3.5c0.8,0,1.5-0.2,2.2-0.6
				C176.5,114,177.5,112.8,177.1,110.3z M48.5,145.8c-4.3,0-7.8-3.3-7.8-7.3v-3.8c0-4,3.5-7.3,7.8-7.3h6.4v18.4H48.5z M70,152.4
				c0,2.2-1.9,4-4.2,4h-2.1c-2.3,0-4.2-1.8-4.2-4v-25H70L70,152.4z M74.6,127.4h7.9v8c0,4.7,4,8.5,9,8.5h4.9c1.5,0,2.9,0.7,3.7,1.9
				H74.6V127.4z M130.6,171.1c0,2.4-2,4.3-4.6,4.3h-2.2c-2.5,0-4.5-1.9-4.5-4.3v-7.8c0-4.8-4-8.7-9-8.7c-2.5,0-4.5-1.9-4.5-4.3v-2.1
				c0,0,0-0.1,0-0.1c0,0,0,0,0-0.1c0-0.1,0-0.1,0-0.2c-0.2-4.6-4.2-8.3-9-8.3h-5.2c-2.5,0-4.5-1.9-4.5-4.2v-7.9h58v2.9
				c0,2.4-2,4.3-4.6,4.3h-0.7c-5.1,0-9.2,3.9-9.2,8.6L130.6,171.1z M157.3,138.7c0,4.1-3.5,7.4-7.9,7.4h-14.2v-2.8
				c0-2.4,2.1-4.3,4.6-4.3h0.6c5.1,0,9.3-3.9,9.3-8.7v-2.8c4.2,0.2,7.6,3.4,7.6,7.4L157.3,138.7z M157,111.9v3.9
				c0,4-3.5,7.3-7.8,7.3H48.5c-4.3,0-7.8-3.3-7.8-7.3v-3.9c0-1.5,0.5-3,1.5-4.3c0.6-0.2,1.2-0.3,1.9-0.3c1.4,0,2.9,1.3,4.6,2.8
				c2.5,2.2,5.6,4.9,10.5,4.9h0c5.8,0,9.5-2,12.7-3.7c2.6-1.4,4.8-2.6,7.9-2.6c3.4,0,5.3,1.2,7.6,2.7c6.7,4.9,16.2,4.9,22.9,0
				c2.3-1.5,4.2-2.7,7.6-2.7c3.1,0,5.3,1.2,7.9,2.6c3.2,1.7,6.9,3.7,12.7,3.7h0c4.8,0,7.9-2.7,10.5-4.9c1.7-1.5,3.2-2.8,4.6-2.8
				c0.6,0,1.3,0.1,1.9,0.3C156.5,108.8,157,110.3,157,111.9L157,111.9z M166.5,107.8c-2.8-1.6-5.8-3-8.9-4.1
				c-0.1-0.1-0.3-0.1-0.4-0.1c-1.2-0.4-2.4-0.6-3.7-0.6c-3.2,0-5.5,2-7.7,4c-2.2,1.9-4.3,3.8-7.3,3.8c-4.6,0-7.4-1.5-10.4-3.2
				c-2.9-1.6-5.9-3.2-10.1-3.2c-3.7,0-7.3,1.2-10.2,3.4c-5.1,4-12.5,4-17.7,0c-2.9-2.2-6.5-3.4-10.2-3.4c-4.3,0-7.3,1.6-10.1,3.2
				c-3,1.6-5.8,3.2-10.4,3.2c-3,0-5.1-1.8-7.3-3.8c-2.2-2-4.5-4-7.7-4c-1.3,0-2.5,0.2-3.7,0.6c-0.1,0-0.2,0.1-0.4,0.1
				c-3.1,1.1-6.1,2.5-9,4.1c-1.8,1-3.7,1.9-5.7,2.7c0.8-3,4.8-7.7,11.1-13.1c1.3,0.5,2.7,0.7,4.1,0.7h116c1.4,0,2.8-0.2,4.1-0.7
				c6.3,5.4,10.3,10.1,11.1,13.1C170.2,109.7,168.3,108.8,166.5,107.8L166.5,107.8z"/>
			<path class="st4" style="fill:#422002;"  d="M94,191.6h-5.8c-1.2,0-2.2,0.8-2.4,1.9c-0.2,1.3,0.9,2.5,2.3,2.5l5.8,0c1.2,0,2.2-0.8,2.4-1.9
				C96.5,192.7,95.4,191.6,94,191.6z"/>
			<path class="st4" style="fill:#422002;"  d="M45.7,164.7c-0.4-1.1-1.7-1.7-2.9-1.3c-1.2,0.4-1.8,1.6-1.4,2.7c3.5,8.7,11.1,15.4,20.5,18
				c1.2,0.3,2.5-0.3,2.9-1.5s-0.3-2.4-1.6-2.7l0,0C55.1,177.7,48.7,172.1,45.7,164.7z"/>
			<path class="st4" style="fill:#422002;"  d="M143.9,81.7c1.3,0,2.3-1,2.3-2.2c0-0.6-0.2-1.1-0.7-1.5l-2.6-2.5c-0.9-0.9-2.3-0.9-3.3-0.1
				c-0.9,0.8-1,2.2-0.1,3.1c0,0,0.1,0.1,0.1,0.1l2.6,2.5C142.7,81.5,143.3,81.7,143.9,81.7z"/>
			<path class="st4" style="fill:#422002;"  d="M52.1,78.6l-2,2.5c-0.8,1-0.6,2.3,0.4,3.1c1,0.7,2.5,0.5,3.2-0.4l2-2.5c0.8-1,0.6-2.3-0.5-3.1
				C54.3,77.5,52.9,77.7,52.1,78.6z"/>
			<path class="st4" style="fill:#422002;"  d="M100.8,79c-1,0.7-1.3,2.1-0.5,3c0,0,0,0,0,0l1.3,1.6c0.7,1,2.2,1.2,3.2,0.5s1.3-2,0.6-3c0,0,0-0.1-0.1-0.1
				l-1.3-1.6C103.2,78.6,101.8,78.3,100.8,79z"/>
			<path class="st4" style="fill:#422002;"  d="M80.7,62.6c-1.4,0-2.5,1.1-2.3,2.5c0.1,1.1,1.2,1.9,2.4,1.9h3.4c1.2,0,2.2-0.8,2.4-1.9
				c0.2-1.3-0.9-2.5-2.3-2.5H80.7z"/>
			<path class="st4" style="fill:#422002;"  d="M116.4,69.7c0.3,0.1,0.6,0.2,1,0.2c0.9,0,1.7-0.5,2.1-1.3l1.4-2.8c0.5-1.1,0-2.4-1.1-2.9
				c-1.2-0.5-2.5,0-3.1,1.1l-1.4,2.8C114.7,67.9,115.2,69.2,116.4,69.7L116.4,69.7z"/>
		</g>
	</g>
</g>
<g>
	<g>
		<path class="st5" style="fill:#FFDE3E;"  d="M360.6,94.6c2-13.3-1.7-26-11.3-34.9l-87,80.4c9.6,8.9,23.4,12.2,37.8,10.4l0,0c-2,13.3,1.7,26,11.3,34.9
			l87-80.4C388.8,96.1,375,92.8,360.6,94.6L360.6,94.6z"/>
		<path class="st3" style="fill:#64BC0F;"  d="M404.8,102.8l-6.4,2.2c-9.6-8.9-23.4-12.2-37.8-10.4c2-13.3-1.7-26-11.3-34.9L352,54c1-3.5,4.9-5.5,8.6-4.5
			c1.4,0.4,2.7,1.1,3.6,2.2l2.6,3c1.8,2.1,4.9,3,7.8,2.1l3.3-1.1c3.7-1.2,7.7,0.7,8.9,4.1c0.2,0.7,0.4,1.4,0.4,2.1
			c0,0.4,0,0.7-0.1,1.1c-0.6,3.5,2,6.9,5.8,7.4c0.4,0.1,0.7,0.1,1.1,0.1c0.4,0,0.8,0,1.2-0.1c3.8-0.6,7.4,1.8,8.1,5.4
			c0.2,1,0.1,2.1-0.3,3.1l-1.1,3.1c-1,2.6,0,5.5,2.3,7.2l3.3,2.4c3,2.2,3.5,6.3,1.1,9.1C407.5,101.6,406.2,102.4,404.8,102.8
			L404.8,102.8z"/>
		<path class="st3" style="fill:#64BC0F;"  d="M311.4,185.4l-2.4,5.9c-1,3.5-4.9,5.5-8.6,4.5c-1.4-0.4-2.7-1.1-3.6-2.2l-2.6-3c-1.8-2.1-4.9-3-7.8-2.1
			l-3.3,1.1c-3.7,1.2-7.7-0.7-8.9-4c-0.4-1-0.5-2.1-0.3-3.1c0.1-0.4,0.1-0.7,0.1-1.1c0-3.6-3.2-6.5-7.1-6.4c-0.4,0-0.7,0-1.1,0.1
			c-0.4,0.1-0.8,0.1-1.1,0.1c-3.9,0-7-2.9-7-6.5c0-0.7,0.1-1.4,0.4-2.1l1.1-3.1c1-2.6,0-5.5-2.3-7.2l-3.3-2.4
			c-3-2.2-3.5-6.3-1.1-9.1c0.9-1.1,2.2-1.8,3.6-2.2l6.2-2.4c9.6,8.9,23.4,12.2,37.7,10.4C298.2,163.8,301.8,176.5,311.4,185.4
			L311.4,185.4z"/>
		<path class="st2" style="fill:#EF3829;"  d="M300.8,167.3l-0.7,0.6c-5.2,4.8-13.6,4.8-18.8,0s-5.2-12.6,0-17.4l0.7-0.6l0,0c6,1.2,12.1,1.4,18.1,0.6
			C299.3,156.1,299.5,161.8,300.8,167.3z"/>
		<path class="st2" style="fill:#EF3829;"  d="M383.2,85.8c0,3.3-1.4,6.4-3.9,8.7l-0.7,0.6h0c-6-1.2-12.1-1.4-18.1-0.6c0.9-5.6,0.6-11.3-0.6-16.8v0l0.7-0.6
			c5.2-4.8,13.6-4.8,18.8,0C381.8,79.4,383.2,82.5,383.2,85.8L383.2,85.8z"/>
		<g>
			<path class="st4" style="fill:#422002;"  d="M336.4,159.1l-4.4,4c-0.9,0.9-0.9,2.3,0.1,3.1c0.9,0.8,2.4,0.8,3.3,0l4.4-4c0.9-0.9,0.9-2.3,0-3.1
				C338.9,158.2,337.4,158.2,336.4,159.1L336.4,159.1z"/>
			<path class="st4" style="fill:#422002;"  d="M408.8,89.7l-3.3-2.4c-1.5-1.1-2.1-3-1.5-4.7l1.1-3.1c1.7-4.6-0.9-9.5-5.9-11.1c-1.5-0.5-3-0.6-4.6-0.4
				c-2.5,0.4-4.9-1.2-5.3-3.5c-0.1-0.4-0.1-0.9,0-1.4c0.8-4.7-2.7-9.2-7.8-10c-1.5-0.2-3.1-0.1-4.6,0.4l-3.3,1
				c-1.8,0.6-3.9,0-5.1-1.4l-2.6-3c-3.2-3.8-9.2-4.4-13.2-1.4c-1.5,1.1-2.6,2.6-3.2,4.4l-2.4,5.2l-16.7,15.4c-0.9,0.9-0.9,2.3,0,3.1
				s2.5,0.9,3.4,0l15.2-14.1c7.7,8.2,10.6,19.3,9,31c-0.1,0.3-0.1,0.6-0.1,0.8c-1.9,12.1-8.7,24.8-19.9,35.1
				c-22.3,20.6-54.2,24.9-72.5,10.2l60.8-56.1c0.9-0.9,0.9-2.3,0-3.1s-2.5-0.9-3.4,0L261,138.2l-5.6,2.2c-5,1.4-7.9,6.2-6.4,10.8
				c0.5,1.7,1.7,3.2,3.2,4.4l3.3,2.4c1.5,1.1,2.1,3,1.5,4.7l-1.1,3.1c-1.7,4.5,0.9,9.5,5.9,11.1c1.5,0.5,3,0.6,4.6,0.4
				c2.5-0.4,4.9,1.2,5.3,3.5c0.1,0.5,0.1,0.9,0,1.4c-0.8,4.7,2.7,9.2,7.8,10c1.5,0.2,3.1,0.1,4.6-0.4l3.3-1c1.8-0.6,3.9,0,5.1,1.4
				l2.6,3c1.8,2.1,4.5,3.3,7.3,3.3c0.6,0,1.3-0.1,1.9-0.2c3.4-0.6,6.2-3,7.2-6.1l2.2-5.3l14-12.9c0.9-0.9,0.9-2.3,0-3.1
				c-0.9-0.9-2.5-0.9-3.4,0l-12.6,11.6c-4.1-4.4-7-9.6-8.3-15.3c0-0.1,0-0.1,0-0.2c-1.1-4.7-1.4-9.5-0.8-14.3
				c15-2.6,28.8-9.3,39.4-19.4c10.9-9.8,18.2-22.6,21-36.4c5.2-0.5,10.4-0.3,15.5,0.7c0.1,0,0.1,0,0.2,0c6.1,1.2,11.8,3.9,16.5,7.7
				l-50,46.2c-0.9,0.9-0.9,2.3,0,3.1c0.9,0.9,2.5,0.9,3.4,0l51.4-47.5l5.8-2c5-1.3,7.9-6.2,6.5-10.8
				C411.4,92.4,410.3,90.8,408.8,89.7L408.8,89.7z M306.7,190.7c-0.7,2.3-3.2,3.6-5.7,3c-0.9-0.2-1.8-0.7-2.4-1.5l-2.6-3
				c-2.5-2.9-6.6-4-10.4-2.8l-3.3,1c-2.4,0.8-5-0.4-5.8-2.6c-0.2-0.7-0.3-1.4-0.2-2.1c0.8-4.7-2.7-9.2-7.8-10c-1-0.2-2-0.2-3,0
				c-2.5,0.4-4.9-1.2-5.3-3.5c-0.1-0.7-0.1-1.4,0.2-2.1l1.1-3.1c1.3-3.5,0.1-7.3-3-9.6l-3.3-2.4c-2-1.5-2.3-4.1-0.7-6
				c0.6-0.7,1.4-1.2,2.4-1.5c0.1,0,0.2-0.1,0.3-0.1l4.7-1.8c4.5,3.8,9.9,6.7,15.8,8.4c-4.9,6.6-3,15.7,4.2,20.1
				c5.3,3.3,12.2,3.3,17.6,0c1.9,5.4,5,10.4,9.2,14.6l-1.9,4.6C306.7,190.5,306.7,190.6,306.7,190.7L306.7,190.7z M298.1,166.7
				c-4.4,3.8-11.3,3.5-15.4-0.6c-3.9-3.9-3.8-9.8,0-13.7c3.2,0.6,6.6,0.9,9.9,0.9c1.6,0,3.1-0.1,4.7-0.2
				C297,157.6,297.2,162.2,298.1,166.7L298.1,166.7z M363.3,92.1c0.4-4.5,0.2-9-0.7-13.5C367,74.8,373.9,75,378,79
				c3.9,3.9,3.9,9.8,0,13.7C373.2,91.9,368.2,91.7,363.3,92.1z M407.4,97.4c-0.3,1.6-1.6,2.8-3.3,3.2c-0.1,0-0.1,0-0.2,0.1l-5,1.7
				c-4.5-3.9-9.9-6.8-15.8-8.5c4.8-6.6,2.9-15.7-4.3-20.1c-5.3-3.3-12.3-3.3-17.6,0c-1.8-5.4-4.9-10.4-9.1-14.6l2-4.4
				c0-0.1,0.1-0.2,0.1-0.3c0.7-2.3,3.2-3.6,5.7-3c0.9,0.2,1.8,0.7,2.4,1.5l2.6,3c2.5,2.9,6.7,4,10.4,2.8l3.3-1
				c2.4-0.8,5,0.4,5.8,2.6c0.2,0.7,0.3,1.4,0.2,2.1c-0.8,4.7,2.7,9.2,7.8,10c1,0.1,2,0.1,3,0c2.5-0.4,4.9,1.2,5.3,3.5
				c0.1,0.7,0.1,1.4-0.2,2.1l-1.1,3.1c-1.3,3.5-0.1,7.3,3,9.6l3.3,2.4C407.2,94.2,407.8,95.8,407.4,97.4L407.4,97.4z"/>
			<path class="st4" style="fill:#422002;"  d="M338.2,107.4l-0.2,3.8c-0.1,1.2,1,2.3,2.3,2.3h0.1c1.3,0,2.3-0.9,2.4-2.1l0.2-3.8c0.1-1.2-1-2.3-2.3-2.3
				C339.4,105.3,338.3,106.2,338.2,107.4z"/>
			<path class="st4" style="fill:#422002;"  d="M343.5,81.7c-1.1-0.6-2.6-0.3-3.3,0.8c0,0,0,0,0,0l-2.6,4.1c-0.7,1.1-0.3,2.4,0.9,3c1.2,0.6,2.6,0.3,3.3-0.8
				l2.6-4.1C345.1,83.6,344.7,82.3,343.5,81.7C343.5,81.7,343.5,81.7,343.5,81.7z"/>
			<path class="st4" style="fill:#422002;"  d="M317.1,127.9l-4.7,2.2c-1.3,0.6-1.8,2.1-1,3.2c0.5,0.6,1.3,1,2.1,1c0.4,0,0.8-0.1,1.1-0.3l4.7-2.2
				c1.4-0.7,1.8-2.5,0.6-3.6C319.1,127.6,318,127.4,317.1,127.9C317.1,127.9,317.1,127.9,317.1,127.9L317.1,127.9z"/>
			<path class="st4" style="fill:#422002;"  d="M292.4,127.5c-1.3,0.1-2.4,1.1-2.3,2.3c0,0,0,0,0,0l0.2,4.8c0.1,1.2,1.1,2.1,2.4,2.1h0.1
				c1.3-0.1,2.4-1.1,2.3-2.3l-0.2-4.8C294.9,128.5,293.7,127.5,292.4,127.5L292.4,127.5z"/>
			<path class="st4" style="fill:#422002;"  d="M322.5,112.7c0.4-1.2-0.2-2.4-1.5-2.8c0,0,0,0,0,0l-3.7-1.2c-1.3-0.4-2.6,0.2-3.1,1.4
				c-0.4,1.2,0.3,2.4,1.5,2.8l0,0l3.7,1.2c0.2,0.1,0.5,0.1,0.8,0.1C321.3,114.2,322.2,113.6,322.5,112.7L322.5,112.7z"/>
			<path class="st4" style="fill:#422002;"  d="M372.5,115.5L372.5,115.5c1.4,0,2.5-1.1,2.5-2.3c0,0,0,0,0,0l-0.1-3.4c0-1.2-1.1-2.2-2.5-2.2h-0.1
				c-1.4,0-2.4,1.1-2.4,2.3c0,0,0,0,0,0l0.1,3.4C370.1,114.5,371.2,115.5,372.5,115.5z"/>
			<path class="st4" style="fill:#422002;"  d="M318.4,158c-1.2-0.6-2.6-0.1-3.2,1s-0.1,2.4,1.1,3c0,0,0.1,0,0.1,0l3.9,1.7c1.2,0.5,2.6,0.1,3.2-1
				c0.6-1.1,0.1-2.4-1.1-3c0,0,0,0,0,0L318.4,158z"/>
			<path class="st4" style="fill:#422002;"  d="M346.2,140.5c0.3,0,0.6-0.1,0.9-0.2l3-1.1c1.2-0.4,1.9-1.7,1.4-2.9c-0.5-1.1-1.9-1.7-3.1-1.3l-3,1.1
				c-1.2,0.4-1.9,1.7-1.4,2.9C344.3,140,345.2,140.5,346.2,140.5L346.2,140.5z"/>
		</g>
	</g>
</g>
<g>
	<g>
		<path class="st2" style="fill:#EF3829;"  d="M91.3,300.1c-41.2,0-61.1,15.1-61.1,15.1l14.3,98.5h93.5l14.3-98.5C152.4,315.2,132.5,300.1,91.3,300.1
			L91.3,300.1z"/>
		<path class="st6" style="fill:#F2E7CB;"  d="M147.9,344.9H34.7l4.6,31.6h104L147.9,344.9z"/>
		<path class="st5" style="fill:#FFDE3E;"  d="M91.3,300.1c24.8,0,41.8,5.4,51.5,9.8v-40.2H128v-18.3h-14.8v18.3H98.7v-18.3H83.9v18.3H69.4v-18.3H54.6v18.3
			H39.8v40.2C49.5,305.5,66.5,300.1,91.3,300.1L91.3,300.1z"/>
		<g>
			<path class="st4" style="fill:#422002;"  d="M42.2,397.3c1.5-0.2,2.5-1.4,2.3-2.8l-0.9-6.3c-0.2-1.3-1.5-2.3-3-2.1c-1.5,0.2-2.5,1.4-2.3,2.8l0.9,6.3
				c0.2,1.2,1.3,2.1,2.6,2.1C41.9,397.3,42.1,397.3,42.2,397.3z"/>
			<path class="st4" style="fill:#422002;"  d="M154.1,313.3c-2.7-1.9-5.6-3.6-8.6-4.9v-16c0-1.3-1-2.4-2.3-2.5c-1.6-0.2-3,1-3,2.4V306
				c-3.1-1.2-6.3-2.3-9.5-3.2v-30.7h9.5v9.1c0,1.3,1,2.4,2.3,2.5c1.6,0.2,3-1,3-2.4v-11.7c0-1.4-1.2-2.5-2.7-2.5h-12.1v-15.8
				c0-1.4-1.2-2.5-2.7-2.5h-14.4c-1.5,0-2.7,1.1-2.7,2.5v15.8h-9.5v-15.8c0-1.4-1.2-2.5-2.7-2.5H83.9c-1.5,0-2.7,1.1-2.7,2.5v15.8
				h-9.5v-15.8c0-1.4-1.2-2.5-2.7-2.5H54.6c-1.5,0-2.7,1.1-2.7,2.5v15.8H39.8c-1.5,0-2.7,1.1-2.7,2.5v38.6c-3,1.4-5.9,3-8.6,4.9
				c-0.7,0.5-1.1,1.4-0.9,2.2l8.9,61.3c0,0,0,0.1,0,0.1c0,0.1,0,0.2,0.1,0.3c0,0.1,0,0.1,0.1,0.2c0,0.1,0.1,0.1,0.1,0.2
				c0,0.1,0.1,0.1,0.1,0.2c0,0.1,0.1,0.1,0.1,0.2s0.1,0.1,0.2,0.2c0.1,0,0.1,0.1,0.2,0.1c0.1,0.1,0.1,0.1,0.2,0.2
				c0.1,0,0.1,0.1,0.2,0.1c0.1,0,0.2,0.1,0.3,0.1c0.1,0,0.1,0,0.2,0.1c0.1,0,0.2,0.1,0.3,0.1c0.1,0,0.1,0,0.2,0c0.1,0,0.2,0,0.3,0
				c0,0,0.1,0,0.1,0h101.2l-4.7,32.3H46.9l-0.8-5.3c-0.2-1.3-1.5-2.3-3-2.1c-1.5,0.2-2.5,1.4-2.3,2.8l1.1,7.5
				c0.2,1.2,1.3,2.1,2.6,2.1H138c1.3,0,2.5-0.9,2.6-2.1l14.3-98.5C155.1,314.6,154.8,313.8,154.1,313.3L154.1,313.3z M115.8,254.3
				h9.5v47.3c-2.9-0.7-6.1-1.3-9.5-1.9V254.3z M110.9,272.2v26.6c-3-0.4-6.2-0.7-9.5-0.9v-25.8H110.9z M86.5,254.3H96v43.6
				c-1.6,0-3.1-0.1-4.8-0.1c-1.6,0-3.2,0-4.8,0.1L86.5,254.3z M81.2,272.2v25.8c-3.3,0.2-6.5,0.5-9.5,0.9v-26.6H81.2z M57.3,254.3
				h9.5v45.5c-3.4,0.5-6.6,1.2-9.5,1.9V254.3z M42.4,272.2h9.5v30.7c-3.2,0.9-6.4,2-9.5,3.2V272.2z M91.3,302.6
				c34.2,0,53.5,10.7,58.2,13.7l-3.8,26H36.9l-3.8-26C37.8,313.3,57,302.6,91.3,302.6L91.3,302.6z M41.7,374l-3.9-26.7h107L141,374
				H41.7z"/>
			<path class="st4" style="fill:#422002;"  d="M100.2,314.5c2.6,0.2,5.2,0.5,7.7,0.8c0.1,0,0.3,0,0.4,0c1.5,0,2.7-1.1,2.7-2.5c0-1.2-1-2.2-2.3-2.4
				c-2.6-0.4-5.4-0.7-8.1-0.9c-1.5-0.1-2.8,0.9-2.9,2.2C97.5,313.2,98.6,314.4,100.2,314.5C100.1,314.5,100.1,314.5,100.2,314.5z"/>
			<path class="st4" style="fill:#422002;"  d="M117.6,317.1c13.7,3.4,20.5,8.4,20.6,8.5c1.2,0.8,2.8,0.7,3.7-0.4c0.9-1,0.7-2.5-0.4-3.4
				c-0.3-0.2-7.7-5.8-22.6-9.4c-1.4-0.3-2.9,0.4-3.3,1.7C115.4,315.4,116.2,316.8,117.6,317.1L117.6,317.1L117.6,317.1z"/>
		</g>
	</g>
</g>
<g>
	<g>
		<path class="st0" style="fill:#EF983B;"  d="M406.3,337c0,51.6-44.2,92.9-96.8,87.9c-41.9-4-75.3-37.4-79.2-79.3c-5-52.6,36.3-96.9,87.8-96.9V337H406.3z"
			/>
		<path class="st5" style="fill:#FFDE3E;"  d="M386.5,337c0,43-39.5,76.7-84.1,66.7c-25.4-5.7-45.3-25.6-51-51c-9.9-44.7,23.8-84.2,66.7-84.2V337H386.5z"/>
		<path class="st0" style="fill:#EF983B;"  d="M406.4,319.4h-20.3c-6.1-24.7-25.4-44-50-50.1V249C371.7,255.8,399.6,283.7,406.4,319.4z"/>
		<path class="st5" style="fill:#FFDE3E;"  d="M385.9,319.4h-15.2c-2.8,0-5.2,2.3-5.2,5.2s-2.3,5.2-5.2,5.2H359c-2.8,0-5.2-2.3-5.2-5.2
			c0-2.9-2.3-5.2-5.2-5.2h-12.6v-49.9C360.6,275.6,379.8,294.8,385.9,319.4z"/>
		<g>
			<ellipse class="st2" style="fill:#EF3829;"  cx="345.4" cy="364.8" rx="7.9" ry="7.9"/>
			<ellipse class="st2" style="fill:#EF3829;"  cx="290.5" cy="364.8" rx="7.9" ry="7.9"/>
			<ellipse class="st2" style="fill:#EF3829;"  cx="290.5" cy="309.6" rx="7.9" ry="7.9"/>
			<ellipse class="st2" style="fill:#EF3829;"  cx="356.4" cy="301.7" rx="7.9" ry="7.9"/>
		</g>
		<g>
			<path class="st4" style="fill:#422002;"  d="M318.1,291.2c-1.5,0-2.7,1.2-2.7,2.7v6.8c0,1.4,1,2.6,2.3,2.8c1.6,0.2,3-1.1,3-2.7v-6.9
				C320.8,292.4,319.6,291.2,318.1,291.2z"/>
			<path class="st4" style="fill:#422002;"  d="M406.3,334.3h-85.5v-21c0-1.4-1-2.6-2.3-2.8c-1.6-0.2-3,1.1-3,2.7v21.1h-63c1.4-34.2,28.8-61.6,63-63.1v9.1
				c0,1.4,1,2.6,2.3,2.8c1.6,0.2,3-1.1,3-2.7l0,0v-31.8c0-1.5-1.2-2.7-2.7-2.7c-50.2,0-90.9,40.8-90.9,91c0,29.2,14,56.7,37.7,73.8
				c1.2,0.9,2.9,0.6,3.7-0.6c0.9-1.2,0.6-2.9-0.6-3.7l0,0c-38.3-27.7-47-81.2-19.3-119.6c15.5-21.6,40.2-34.7,66.7-35.5v14.5
				c-39.1,1.5-69.7,34.4-68.3,73.5c1.3,38.7,33.7,69.5,72.4,68.7c37.7-0.7,68.2-30.8,69.6-68.5h14.5c-1.5,47.3-41,84.4-88.2,82.9
				c-13-0.4-25.8-3.8-37.3-9.9c-1.3-0.7-2.9-0.2-3.6,1.1c-0.7,1.3-0.2,2.9,1.1,3.6c44.4,23.5,99.4,6.6,122.9-37.9
				c6.9-13.1,10.6-27.7,10.6-42.6C409,335.5,407.8,334.3,406.3,334.3L406.3,334.3z M252.5,339.7h63v63.1
				C281.3,401.3,253.9,373.9,252.5,339.7z M320.8,402.7v-63.1h63C382.3,373.9,355,401.3,320.8,402.7z"/>
			<path class="st4" style="fill:#422002;"  d="M336.1,322.1h12.6c1.4,0,2.5,1.1,2.5,2.5c0,4.3,3.5,7.8,7.8,7.8h1.3c4.3,0,7.8-3.5,7.8-7.8
				c0-1.4,1.1-2.5,2.5-2.5H406c1.5,0,2.7-1.2,2.7-2.7c0-0.2,0-0.3,0-0.5c-7-36.5-35.6-65.1-72-72.1c-1.4-0.3-2.8,0.7-3.1,2.1
				c0,0.2,0,0.3,0,0.5v70C333.4,320.9,334.6,322.1,336.1,322.1L336.1,322.1z M370.6,316.7c-4.3,0-7.8,3.5-7.8,7.8
				c0,1.4-1.1,2.5-2.5,2.5H359c-1.4,0-2.5-1.1-2.5-2.5c0-4.3-3.5-7.8-7.8-7.8h-10V273c20.9,6.3,37.3,22.7,43.6,43.7H370.6z
				 M403.1,316.7h-14.9c-6.6-24-25.4-42.8-49.4-49.4v-15C370.7,259.8,395.6,284.7,403.1,316.7L403.1,316.7z"/>
			<path class="st4" style="fill:#422002;"  d="M345.4,375.3c5.8,0,10.5-4.7,10.5-10.5c0-5.8-4.7-10.5-10.5-10.5s-10.5,4.7-10.5,10.5
				C334.9,370.6,339.6,375.3,345.4,375.3z M345.4,359.6c2.9,0,5.2,2.3,5.2,5.2c0,2.9-2.3,5.2-5.2,5.2c-2.9,0-5.2-2.3-5.2-5.2
				C340.3,361.9,342.6,359.6,345.4,359.6z"/>
			<path class="st4" style="fill:#422002;"  d="M290.5,354.3c-5.8,0-10.5,4.7-10.5,10.5c0,5.8,4.7,10.5,10.5,10.5s10.5-4.7,10.5-10.5
				C301,359,296.3,354.3,290.5,354.3z M290.5,370c-2.9,0-5.2-2.3-5.2-5.2c0-2.9,2.3-5.2,5.2-5.2c2.9,0,5.2,2.3,5.2,5.2
				C295.6,367.7,293.3,370,290.5,370z"/>
			<path class="st4" style="fill:#422002;"  d="M279.9,309.7c0,6,5.1,10.9,11.2,10.5c5.2-0.3,9.5-4.6,9.8-9.8c0.4-6.1-4.5-11.2-10.5-11.2c0,0,0,0,0,0
				C284.7,299.1,280,303.8,279.9,309.7z M295.6,309.7c0,3.1-2.6,5.5-5.8,5.2c-2.4-0.3-4.3-2.2-4.6-4.6c-0.3-3.1,2.1-5.8,5.1-5.8
				c0,0,0,0,0,0C293.3,304.5,295.6,306.8,295.6,309.7z"/>
			<path class="st4" style="fill:#422002;"  d="M356.4,291.2c-5.8,0-10.5,4.7-10.5,10.5s4.7,10.5,10.5,10.5s10.5-4.7,10.5-10.5l0,0
				C366.9,295.9,362.2,291.2,356.4,291.2L356.4,291.2z M356.5,306.9c-3.1,0-5.5-2.6-5.1-5.8c0.3-2.4,2.2-4.3,4.6-4.6
				c3.1-0.3,5.8,2.1,5.8,5.1c0,0,0,0,0,0C361.7,304.6,359.4,306.9,356.5,306.9z"/>
			<path class="st4" style="fill:#422002;"  d="M310,346.5c-0.9-1.2-2.6-1.3-3.8-0.4c0,0,0,0,0,0l-2.2,1.8c-1.2,0.9-1.3,2.6-0.4,3.8
				c0.9,1.2,2.6,1.3,3.8,0.4l0,0l2.2-1.8C310.8,349.3,311,347.6,310,346.5L310,346.5z"/>
			<path class="st4" style="fill:#422002;"  d="M301.4,325.4c-0.2,1.5,0.9,2.8,2.4,2.9l2.8,0.3c0.1,0,0.2,0,0.3,0c1.5,0,2.7-1.2,2.7-2.7
				c0-1.4-1-2.5-2.4-2.7l-2.8-0.3C302.8,322.9,301.5,323.9,301.4,325.4L301.4,325.4z"/>
			<path class="st4" style="fill:#422002;"  d="M305.5,292.7c0.1,0,0.2,0,0.3,0c1.5-0.1,2.6-1.4,2.4-2.9c0,0,0,0,0,0l-0.3-2.8c-0.1-1.5-1.4-2.6-2.9-2.4
				s-2.6,1.4-2.4,2.9l0.3,2.8C303,291.6,304.1,292.7,305.5,292.7z"/>
			<path class="st4" style="fill:#422002;"  d="M330,351.2l2.7,0.7c1.4,0.4,2.9-0.5,3.3-1.9c0.4-1.4-0.5-2.9-1.9-3.3l0,0l-2.7-0.7c-1.4-0.4-2.9,0.5-3.3,1.9
				C327.7,349.4,328.6,350.9,330,351.2L330,351.2z"/>
			<path class="st4" style="fill:#422002;"  d="M267.4,348.7l-2.2,1.8c-1.2,0.9-1.3,2.6-0.4,3.8c0.9,1.2,2.6,1.3,3.8,0.4l2.2-1.8c1.2-0.9,1.3-2.6,0.4-3.8
				C270.2,348,268.5,347.8,267.4,348.7L267.4,348.7z"/>
			<path class="st4" style="fill:#422002;"  d="M361.5,350.2l2.2,1.8c1.2,0.9,2.8,0.7,3.8-0.4s0.7-2.8-0.4-3.8l-2.2-1.8c-1.2-0.9-2.8-0.7-3.8,0.4
				C360.1,347.7,360.3,349.3,361.5,350.2z"/>
			<path class="st4" style="fill:#422002;"  d="M270.7,318.3c-1.2-0.9-2.8-0.7-3.8,0.4c-0.9,1.2-0.7,2.8,0.4,3.8c0,0,0,0,0,0l2.2,1.8
				c1.2,0.9,2.8,0.7,3.8-0.5c0.9-1.2,0.7-2.8-0.4-3.7L270.7,318.3z"/>
			<path class="st4" style="fill:#422002;"  d="M334,384.1l-2.2,1.8c-1.2,0.9-1.3,2.6-0.4,3.8c0.9,1.2,2.6,1.3,3.8,0.4l2.2-1.8c1.1-0.9,1.3-2.6,0.4-3.8
				C336.8,383.4,335.1,383.2,334,384.1L334,384.1z"/>
			<path class="st4" style="fill:#422002;"  d="M306.2,385.2l-2.6-0.9c-1.3-0.4-2.8,0.1-3.4,1.4c-0.7,1.5,0.1,3.2,1.6,3.7l2.7,0.9c1.6,0.6,3.4-0.5,3.5-2.3
				C308.2,386.8,307.4,385.6,306.2,385.2C306.2,385.2,306.2,385.2,306.2,385.2L306.2,385.2z"/>
			<path class="st4" style="fill:#422002;"  d="M348.1,288.5c1.5,0,2.7-1.2,2.7-2.7c0-1.2-0.7-2.2-1.8-2.5l-2.7-0.9c-1.4-0.5-2.9,0.3-3.4,1.7
				s0.3,2.9,1.7,3.4c0,0,0,0,0.1,0l2.7,0.9C347.6,288.5,347.9,288.5,348.1,288.5L348.1,288.5z"/>
		</g>
	</g>
</g>
</svg>
