<?xml version="1.0" encoding="utf-8"?>
<!-- Generator: Adobe Illustrator 23.0.1, SVG Export Plug-In . SVG Version: 6.00 Build 0)  -->
<svg version="1.0" id="Calque_1" xmlns="http://www.w3.org/2000/svg" xmlns:xlink="http://www.w3.org/1999/xlink" x="0px" y="0px"
	 viewBox="0 0 453.5 453.5" style="enable-background:new 0 0 453.5 453.5;" xml:space="preserve">

<g>
	<g>
		<path class="st0" style="fill:#F2E7CB;"  d="M113.6,289.2c7.2-57,64.9-98,128.7-91.5c53.9,5.5,96.4,43.4,102.5,91.5H113.6z"/>
		<path class="st1" style="fill:#8C3F07;"  d="M95.1,289.2h267.9v23.3H95.1V289.2z"/>
		<path class="st3" style="fill:#EF983B;"  d="M339.3,352.4h-65.8c7,0,12.8-5.1,12.8-11.4c0-6.3-5.7-11.4-12.8-11.4H178c-11.6,0-22.4,5.6-28.2,14.6
			l-43.7,68.2h66.7l24.2-37.3h142.2c7,0,12.8-5.1,12.8-11.4C352.1,357.5,346.4,352.4,339.3,352.4z"/>
		<path class="st1" style="fill:#8C3F07;"  d="M229.2,197.2c5.5,0,11,0.3,16.5,1c5-8.1,1.7-18.4-7.4-22.8c-9.1-4.5-20.6-1.5-25.6,6.6
			c-3.1,5-3.1,11.2,0,16.2C218.1,197.5,223.6,197.2,229.2,197.2z"/>
		<g>
			<path class="st3" d="M314,274.3c0.7,1.9,3,3,5.1,2.3c2.1-0.6,3.3-2.7,2.6-4.6c-5.3-14.8-15-28-28-38.3c-1.7-1.3-4.2-1.2-5.7,0.3
				c-1.5,1.5-1.4,3.8,0.3,5.1c0,0,0,0,0,0C300.2,248.7,309.1,260.8,314,274.3z"/>
			<path class="st3" d="M272.6,229.2c2,0.9,4.4,0.3,5.5-1.5c1-1.7,0.4-3.9-1.5-4.9c-4.6-2.3-9.4-4.2-14.3-5.8
				c-2.1-0.7-4.4,0.2-5.2,2.1s0.3,4,2.4,4.7c0,0,0.1,0,0.1,0C264,225.3,268.4,227.1,272.6,229.2z"/>
			<path class="st3" d="M362.9,285.6h-14.6c0,0-46.3-81.8-97-90.2c3.3-10.9-4-22.1-16.2-25c-12.2-2.9-24.8,3.5-28.1,14.4
				c-1,3.5-1,7.1,0,10.6c-23.9,3.9-46,14.3-63.1,29.7c-1.6,1.4-1.6,3.7,0,5.1s4.2,1.4,5.7,0c43.8-39.2,114.9-39.2,158.8-0.1
				c16.9,15.1,28,34.5,31.6,56H118.2c2.7-16.2,9.7-31.3,20.3-44.2c1.3-1.6,0.9-3.9-0.9-5.1s-4.3-0.8-5.7,0.8l0,0
				c-11.6,14.2-21.9,48-21.9,48h-15c-2.2,0-4.1,1.6-4.1,3.6c0,0,0,0,0,0v23.3c0,2,1.8,3.6,4.1,3.6c0,0,0,0,0,0h267.9
				c2.2,0,4.1-1.6,4.1-3.6c0,0,0,0,0,0v-23.3C367,287.2,365.2,285.6,362.9,285.6C362.9,285.6,362.9,285.6,362.9,285.6L362.9,285.6z
				 M215.2,194.3c-2.6-6.9,1.5-14.4,9.2-16.8s16.1,1.3,18.8,8.2c1.1,2.8,1.1,5.8,0,8.5C233.9,193.3,224.5,193.3,215.2,194.3z
				 M358.9,308.9H99.1v-16h259.8V308.9z"/>
			<path class="st3" d="M299,371.6h-10.3c-2.1,0-3.9,1.3-4.2,3.2c-0.3,2.2,1.6,4.1,4,4.1h10.3c2.1,0,3.9-1.3,4.2-3.2
				C303.3,373.4,301.4,371.6,299,371.6z"/>
			<path class="st3" d="M339.3,348.8h-51.4c4.8-7.1,2.3-16.3-5.7-20.6c-2.6-1.4-5.6-2.2-8.7-2.2H178c-13.1,0-25.2,6.3-31.7,16.4
				l-43.6,68.1c-0.7,1.1-0.8,2.5-0.1,3.6c0.8,1.3,2.2,2,3.6,2h66.7c1.5,0,2.8-0.7,3.5-1.8l23-35.5h69.8c2.1,0,3.9-1.3,4.2-3.2
				c0.3-2.2-1.6-4.1-4-4.1h-72.3c-1.5,0-2.8,0.7-3.5,1.8l-23,35.5h-57.4l40.2-62.8c5.1-7.9,14.5-12.8,24.7-12.8h95.5
				c4.8,0.1,8.6,3.6,8.6,7.9c-0.1,4.2-3.9,7.6-8.6,7.6h-53.1c-2.1,0-3.9,1.3-4.2,3.2c-0.3,2.2,1.6,4.1,4,4.1h119.1
				c4.8-0.1,8.8,3.4,8.8,7.6s-3.8,7.8-8.6,7.9c-0.1,0-0.2,0-0.3,0h-20.1c-2.1,0-3.9,1.3-4.2,3.2c-0.3,2.2,1.6,4.1,4,4.1h20
				c8.6,0,16-5.6,17-13.2C357.2,356.5,349.3,348.8,339.3,348.8L339.3,348.8z"/>
		</g>
	</g>
</g>
<g>
	<g>
		<path d="M185.1,106.8c-5.2-9.4-9.3-16.9-0.3-29.1c1.9-2.6,1.1-6.1-1.8-7.9c-2.9-1.7-6.9-1-8.8,1.6c-13.2,17.6-6.2,30.3-0.6,40.4
			c5.3,9.5,9.1,16.4,0.6,27.7c-2,2.6-1.2,6.1,1.8,7.9c1.1,0.6,2.3,1,3.5,1c2,0,4.1-0.9,5.3-2.5C197.5,129.1,190.6,116.7,185.1,106.8
			z"/>
	</g>
</g>
<g>
	<g>
		<path d="M235.8,106.8c-5.2-9.4-9.4-16.9-0.3-29.1c1.9-2.6,1.1-6.1-1.8-7.9c-2.9-1.7-6.9-1-8.8,1.6c-13.2,17.6-6.2,30.3-0.6,40.4
			c5.3,9.5,9.1,16.4,0.6,27.7c-1.9,2.6-1.1,6.1,1.8,7.9c1.1,0.6,2.3,1,3.5,1c2,0,4.1-0.9,5.3-2.5
			C248.1,129.1,241.3,116.7,235.8,106.8z"/>
	</g>
</g>
<g>
	<g>
		<path d="M286.5,106.8c-5.2-9.4-9.4-16.9-0.3-29.1c1.9-2.6,1.1-6.1-1.8-7.9c-2.9-1.7-6.9-1-8.8,1.6c-13.2,17.6-6.2,30.3-0.6,40.4
			c5.3,9.5,9.1,16.4,0.6,27.7c-1.9,2.6-1.1,6.1,1.8,7.9c1.1,0.6,2.3,1,3.5,1c2.1,0,4.1-0.9,5.3-2.5
			C298.8,129.1,292,116.7,286.5,106.8z"/>
	</g>
</g>
</svg>
