<?xml version="1.0" encoding="utf-8"?>
<!-- Generator: Adobe Illustrator 23.0.1, SVG Export Plug-In . SVG Version: 6.00 Build 0)  -->
<svg version="1.0" id="Calque_1" xmlns="http://www.w3.org/2000/svg" xmlns:xlink="http://www.w3.org/1999/xlink" x="0px" y="0px"
	viewBox="0 0 453.5 453.5" style="enable-background:new 0 0 453.5 453.5;" xml:space="preserve">

<g class="st0" style="display:none;" >
	<g class="st1">
		<path d="M394.7,195.3l33.8,67.8c1.4,2.8-0.1,5-3.2,5h-212c-3.1,0-4.6-2.3-3.2-5l33.8-67.8c0.5-1.1,2-2,3.2-2h29
			c0.9,0,2.1,0.5,2.7,1.2c1.9,2.2,3.9,4.3,5.8,6.4c1.9,2,3.7,4,5.6,6.1h-34.4c-1.2,0-2.7,0.9-3.2,2l-22.5,45.1h178.4L386,209
			c-0.5-1.1-2-2-3.2-2h-34.5c1.9-2.1,3.7-4.1,5.6-6.1c2-2.1,3.9-4.2,5.9-6.4c0.6-0.7,1.8-1.2,2.7-1.2h29.1
			C392.7,193.4,394.1,194.3,394.7,195.3z M369.1,148.7c0,37.2-31.7,44.1-46.5,79.8c-1.2,2.9-5.4,2.9-6.6,0
			c-13.4-32.2-40.5-41-45.7-69.7c-5.1-28.2,14.9-55.9,44.1-58.6C344.1,97.5,369.1,120.2,369.1,148.7z M345.5,148.7
			c0-14.2-11.8-25.7-26.3-25.7c-14.5,0-26.3,11.5-26.3,25.7c0,14.2,11.8,25.7,26.3,25.7C333.8,174.4,345.5,162.9,345.5,148.7z"/>
	</g>
	<g class="st1">
	</g>
	<g class="st1">
	</g>
	<g class="st1">
	</g>
	<g class="st1">
	</g>
	<g class="st1">
	</g>
	<g class="st1">
	</g>
	<g class="st1">
	</g>
	<g class="st1">
	</g>
	<g class="st1">
	</g>
	<g class="st1">
	</g>
	<g class="st1">
	</g>
	<g class="st1">
	</g>
	<g class="st1">
	</g>
	<g class="st1">
	</g>
	<g class="st1">
	</g>
</g>
	<path class="st2" style="fill:#ECECF1;"  d="M381.1,148.4c-8.7,0-15.7,6.9-15.7,15.3v85.9h31.4v-85.9C396.9,155.3,389.8,148.4,381.1,148.4z"/>
	<path class="st2" style="fill:#ECECF1;"  d="M257.9,148.4c-8.7,0-15.7,6.9-15.7,15.3v85.9h31.4c0-3.2,0-81.7,0-85.9C273.6,155.3,266.5,148.4,257.9,148.4z"
	/>
	<path class="st3" style="fill:#7FE881;"  d="M311,220.6h51.9c0-20,0-39.6,0-43.8h-97.9C264.9,176.8,298.3,208.6,311,220.6z"/>
	<path class="st4" style="fill:#76E2F8;"  d="M275,177.3v69.4c0-10.1-8.2-18.3-18.3-18.3s-18.3,8.2-18.3,18.3c0,10.6,9.2,18.3,19.3,18.3H275l46-43.8
	L275,177.3z"/>
	<path class="st4" style="fill:#76E2F8;"  d="M387,232.5c-12.2-3.1-23.1,6-23.1,17.6c0-2.9,0-13,0-25.6h-31.4l-43.8,43.8h93.5c10.1,0,18.3-8.2,18.3-18.3
	C400.3,241.3,394.4,234.4,387,232.5z"/>
	<path class="st5" style="fill:#FED2A4;"  d="M365.4,209.7v18.4h-27l-37.7,36.8h-27l39.6-36.8l-39.6-36.8v-18.4h7.5c0,0,28.8,26.7,39.6,36.8H365.4z"/>
	<path class="st6" style="fill:#FF637B;"  d="M319.5,114.1c15.6,0,28.3,12.4,28.3,27.6c0,7.5-6.9,20.3-13.8,31.3c-7.2,11.4-14.5,20.9-14.5,20.9
	s-7.3-9.5-14.5-20.9c-7-11-13.8-23.8-13.8-31.3C291.2,126.4,303.9,114.1,319.5,114.1z"/>
	<path class="st2" style="fill:#ECECF1;"  d="M316.5,121.9c8.1,0,14.6,6.6,14.6,14.6c0,8.1-6.6,14.6-14.6,14.6s-14.6-6.6-14.6-14.6
	C301.9,128.5,308.4,121.9,316.5,121.9z"/>
	<path d="M381.1,145.3c-10.4,0-18.9,8.2-18.9,18.4v6.1h-22.7c7.6-12.6,11.4-22.1,11.4-28.2c0-16.9-14.1-30.7-31.4-30.7
	s-31.4,13.8-31.4,30.7c0,6.1,3.8,15.6,11.4,28.2c-2.6,0-20.5,0-22.7,0v-6.1c0-10.1-8.5-18.4-18.9-18.4c-10.4,0-18.9,8.2-18.9,18.4
	v17.2c0,1.7,1.4,3.1,3.1,3.1s3.1-1.4,3.1-3.1v-17.2c0-6.8,5.6-12.3,12.6-12.3c6.9,0,12.6,5.5,12.6,12.3v72.2
	c-3.3-2.9-7.8-4.7-12.6-4.7c-4.8,0-9.2,1.8-12.6,4.7v-30.5c0-1.7-1.4-3.1-3.1-3.1s-3.1,1.4-3.1,3.1v44.2c0,10.5,9.3,18.4,19.8,18.4
	h122.4c10.4,0,18.9-8.3,18.9-18.4v-85.9C400,153.6,391.5,145.3,381.1,145.3z M368.6,163.7c0-6.8,5.6-12.3,12.6-12.3
	c6.9,0,12.6,5.5,12.6,12.3v72.1c-2.2-1.9-4.8-3.3-7.6-4c-6.3-1.6-12.8-0.1-17.6,4.1C368.6,233.3,368.6,167.4,368.6,163.7z
	 M362.3,206.7H322c-10.5-9.8-30.7-28.5-33-30.7h14.3c6.9,10.7,13.6,19.5,13.7,19.6c0.6,0.8,1.5,1.2,2.5,1.2s1.9-0.5,2.5-1.2
	c0.1-0.1,6.8-8.9,13.7-19.6h26.6V206.7z M319.5,117.1c13.9,0,25.2,11,25.2,24.5c0,11.4-18.4,37.7-25.2,46.9
	c-6.8-9.3-25.2-35.6-25.2-46.9C294.3,128.1,305.6,117.1,319.5,117.1z M245.3,249.6c0-6.8,5.6-12.3,12.6-12.3
	c6.9,0,12.6,5.5,12.6,12.3c0,1.7,1.4,3.1,3.1,3.1s3.1-1.4,3.1-3.1v-51.1l31.9,29.6l-36.3,33.7h-13.6
	C251.7,261.9,245.3,256.7,245.3,249.6z M315.4,230.4c0.6-0.6,1-1.4,1-2.2s-0.4-1.6-1-2.2L276.7,190v-14h3.1
	c0.2,0.2,37.2,34.6,38.7,36c0.6,0.5,1.4,0.8,2.2,0.8h41.5v12.3h-23.9c-0.8,0-1.6,0.3-2.2,0.9l-36.8,35.9h-17.9L315.4,230.4z
	 M381.1,261.9h-72.9l31.4-30.7h22.6v18.4c0,1.7,1.4,3.1,3.1,3.1s3.1-1.4,3.1-3.1c0-7.9,7.6-13.9,16-11.8c5.1,1.3,9.2,5.9,9.2,11.8
	C393.7,256.4,388.1,261.9,381.1,261.9z"/>
	<path d="M319.5,157.8c10.1,0,18.3-8.2,18.3-18.3s-8.2-18.3-18.3-18.3s-18.3,8.2-18.3,18.3S309.4,157.8,319.5,157.8z M319.5,128.6
	c6,0,11,4.9,11,11c0,6-4.9,11-11,11s-11-4.9-11-11C308.5,133.5,313.5,128.6,319.5,128.6z"/>
	<g>
	<path class="st7" style="fill:#616161;"  d="M170.2,246.7c0,3.2-0.8,6.2-2.1,8.9c-3.1,6.1-9.2,10.2-16.2,10.2h-27.2v39.4h-13.4l-0.7-8.7l-2.8-35.5
		c-0.6-7.6,5.2-14.1,12.5-14.1H170.2L170.2,246.7z"/>
		<path class="st8" style="fill:#424242;"  d="M169.2,247.2c0,3.1-0.7,6.1-2,8.7h-27.8c-4.6,0-8.3-3.9-8.3-8.7l0,0H169.2z"/>
		<path class="st9" style="fill:#F4511E;"  d="M169.1,199.3v47.9h-29.9v-69.7h9.1c3.1,0,6.1,0.7,8.7,2C164.2,183,169.1,190.5,169.1,199.3z"/>
		<path class="st10" style="fill:#B0BEC5;"  d="M29.7,318.1c0-16.6,12.9-30,28.8-30s28.8,13.4,28.8,30H29.7z"/>
		<path class="st7" style="fill:#616161;"  d="M38.1,318.1c-0.3,1.5-0.5,3.1-0.5,4.8c0,12,9.3,21.7,20.8,21.7s20.8-9.7,20.8-21.7c0-1.6-0.2-3.2-0.5-4.8H38.1
		z"/>
		<path class="st11" style="fill:#D8D7DA;"  d="M51.5,318.1c-0.9,1.4-1.4,3-1.4,4.7c0,4.6,3.5,8.5,7.9,8.7c4.8,0.3,8.8-3.7,8.8-8.7c0-1.8-0.5-3.4-1.4-4.8
		H51.5z"/>
		<path class="st7" style="fill:#616161;"  d="M163.5,318.1c-0.3,1.5-0.5,3.1-0.5,4.8c0,12,9.3,21.7,20.8,21.7s20.8-9.7,20.8-21.7c0-1.6-0.2-3.2-0.5-4.8
		H163.5z"/>
		<path class="st11" style="fill:#D8D7DA;"  d="M176.9,318.1c-0.9,1.4-1.4,3-1.4,4.7c0,4.6,3.5,8.5,7.9,8.7c4.8,0.3,8.8-3.7,8.8-8.7c0-1.8-0.5-3.4-1.4-4.8
		H176.9z"/>
		<path class="st9" style="fill:#F4511E;"  d="M102.5,210.9l-21.8,76.5l-2.6,9.1c-4.7-4.6-10.8-7.6-17.7-8.1l2.5-8.5l17.8-61.6c1.8-6.9,8.7-11,15.3-9.1
		L102.5,210.9z"/>
		<path class="st12" style="fill:#FDD844;"  d="M63.3,214c7.4,0,13.3,6.2,13.3,13.9s-6,13.9-13.3,13.9V214z"/>
		<polygon class="st8" style="fill:#424242;"  points="124.7,296.5 124.7,305.1 111.4,305.1 110.7,296.5 	"/>
		<path class="st10" style="fill:#B0BEC5;"  d="M148.8,305.1v13h-46.9l-17.1-13.8l-1.2-0.9c-1.4-2.6-3.2-4.9-5.2-7l3.2-11.3l7.1,5.5l18.6,14.5L148.8,305.1
		L148.8,305.1z"/>
		<path class="st9" style="fill:#F4511E;"  d="M216.9,291.7v26.4h-68.1v-52.3h43c6.9,0,13.1,2.9,17.6,7.5c2.7,2.7,4.7,6.1,6,9.8
		C216.4,285.8,216.9,288.7,216.9,291.7z"/>
		<path class="st13" style="fill:#D84315;"  d="M209.1,274.9c-0.3,9.6-7.4,16.8-16.6,16.8h-27.1c-6.4,0-12.2-2.5-16.6-6.6v-19.3h42.8c6.8,0,13,2.9,17.5,7.5
		C209.1,273.8,209.1,274.3,209.1,274.9z"/>
		<path class="st10" style="fill:#B0BEC5;"  d="M192.7,283.1h-27.1c-9.2,0-16.6-7.7-16.6-17.3l0,0h42.8c0.5,0,1.1,0,1.6,0.1
		C203.9,266.5,203.3,283.1,192.7,283.1z"/>
		<rect x="181.6" y="226.8" class="st9" style="fill:#F4511E;"  width="54.4" height="38.9"/>
		<path class="st13" style="fill:#D84315;"  d="M150.6,183.9c2.4-1.1,4.5-2.6,6.5-4.4c-2.7-1.3-5.6-2-8.7-2h-9.1v2.7v5.9v56.9c9.5-2,16.6-10.8,16.6-21.3
		v-26.1C155.8,191,153.8,186.8,150.6,183.9z"/>
		<path class="st14" style="fill:#FDD8A8;"  d="M152.4,172.3c-2.5,2.7-5.8,4.5-9.6,5.1c-0.8,0.1-1.6,0.2-2.4,0.2c-8.5,0-15.5-6.6-16.5-15.2
		c-0.1-0.7-0.1-1.4-0.1-2.2c0-2.3,0.4-4.5,1.2-6.5h17.1v5.8C142.1,165.9,146.6,171.2,152.4,172.3z"/>
		<path class="st15" style="fill:#FFC477;"  d="M152.4,172.3c-2.5,2.7-5.8,4.5-9.5,5.1c-4.7-3.4-8.1-8.8-8.9-15h-10c-0.1-0.7-0.1-1.4-0.1-2.2
		c0-2.3,0.4-4.5,1.2-6.5h17.1v5.8C142.1,165.9,146.6,171.2,152.4,172.3z"/>
		<g>
		<path class="st9" style="fill:#F4511E;"  d="M167.4,172.7c1.8-4.2,2.7-8.8,2.5-13.7c-0.6-15.8-12.9-28.7-28-29.4c-14.7-0.7-24.2,9.8-27.2,24.1h27.4v6
			c0,7.2,5.6,13,12.5,13L167.4,172.7L167.4,172.7z"/>
			<path class="st9" style="fill:#F4511E;"  d="M111.4,235H135c6.9,0,12.5-5.8,12.5-13V196c0-3.8-3-6.9-6.6-6.9l0,0c-3.7,0-6.6,3.1-6.6,6.9v25.2h-22.8
			L111.4,235L111.4,235z"/>
	</g>
		<path class="st14" style="fill:#FDD8A8;"  d="M111.4,221.2H99c-3.7,0-6.6,3.1-6.6,6.9l0,0c0,3.8,3,6.9,6.6,6.9h12.5V221.2L111.4,221.2z"/>
		<rect x="181.6" y="226.8" class="st13" style="fill:#D84315;"  width="54.4" height="8.7"/>
		<path class="st9" style="fill:#F4511E;"  d="M229.7,209.1h-41.9c-3.5,0-6.3,2.9-6.3,6.5v10.8H236v-10.8C236,212,233.2,209.1,229.7,209.1z"/>
		<path class="st13" style="fill:#D84315;"  d="M80.7,287.4l-2.6,9.1c-4.7-4.6-10.8-7.6-17.7-8.1l2.5-8.5C69.5,280.7,75.6,283.4,80.7,287.4z"/>
		<path class="st16" style="fill:#90A4AE;"  d="M88.5,290.6l-3.9,13.8l-1.2-0.9c-1.4-2.6-3.2-4.9-5.3-7l3.2-11.4L88.5,290.6z"/>
		<path d="M229.9,206.1H188c-5.2,0-9.4,4.4-9.4,9.8v46.5h-12.3c3.1-3.2,5.2-7.4,5.8-12.1h0.2l0,0l0,0v-50.9c0-10.8-6.6-20-15.9-23.5
		h12.7l0.8-2c2-4.8,2.9-9.9,2.7-15.2c-0.7-17.4-14.1-31.7-30.6-32.6c-14.9-0.8-26.4,9.5-30,26.7l-0.8,4h9.7
		c-0.2,1.1-0.3,2.2-0.3,3.3c0,9.9,6.6,18.2,15.4,20.3v6.7c-3,1.8-5,5.1-5,9v21.7H104l2.6-9l-9.4-2.6c-3.3-0.9-6.8-0.8-10,0.5
		c-4.7,1.9-8.1,5.9-9.4,10.8l-0.4,1.4c-2.9-4.8-8.1-8-13.9-8h-3.1V245h3.1c2.4,0,4.7-0.5,6.7-1.5L58.2,285
		c-17.4,0.1-31.5,15-31.5,33.3v3.3h7.8c0,0.5,0,1,0,1.5c0,13.7,10.7,24.9,23.9,24.9s23.9-11.2,23.9-24.9c0-0.5,0-1,0-1.5h8v-3.2
		c0-1.9-0.2-3.7-0.4-5.5l10.8,8.7h59.2l0,0l0,0c0,0.5,0,1,0,1.5c0,13.7,10.7,24.9,23.9,24.9s23.9-11.2,23.9-24.9c0-0.5,0-1,0-1.5
		h12.1v-29.6c0-3.3-0.5-6.6-1.6-9.7c-1.8-5.2-4.9-9.7-8.9-13h30v-53.4C239.3,210.4,235.1,206.1,229.9,206.1z M66.6,217.8
		c4.1,1.4,7.1,5.4,7.1,10.1s-3,8.8-7.1,10.1V217.8z M188,212.5h41.5c1.7,0,3.1,1.5,3.1,3.3v7.6h-12.5v-5.6H214v5.6h-8.3v-5.6h-6.2
		v5.6h-14.5v-7.6C184.9,214,186.3,212.5,188,212.5z M192.9,268.8c0.1,0,0.2,0,0.3,0c3.5,0.3,4.7,3.1,4.6,5.5
		c-0.1,2.4-1.5,5.3-5.2,5.3h-27.1c-6.4,0-11.7-4.6-13.1-10.8l0,0l40.1,0C192.9,268.8,192.5,268.8,192.9,268.8z M145.9,302.1H128
		v-32.9h17.9V302.1z M151.1,262.3L151.1,262.3h-29.7v39.4h-7.3l-3.2-41c-0.2-3,0.8-5.8,2.9-7.9c1.8-1.8,4.2-2.7,6.6-2.7l45.1,0l0,0
		C164,257.1,158.1,262.3,151.1,262.3z M99.2,238.1h36.1c0.3,0,0.7,0,1,0v5.7h-15.7c-4.3,0-8.5,1.9-11.4,5.2
		c-2.9,3.3-4.4,7.8-4.1,12.3l3.2,40.2l-22.8-17.9l13-45.6C98.6,238.1,98.9,238.1,99.2,238.1z M166.2,199v44.6h-23.7v-7.5
		c4.9-2.7,8.3-8.2,8.3-14.4v-26.1c0-5.1-3.6-9.4-8.3-10.1v-5.1h6C158.3,180.5,166.2,188.8,166.2,199z M141.9,132.7
		c13.5,0.7,24.5,12.2,25,26.3c0.1,3.6-0.4,7-1.5,10.3h-10.5c-0.5,0-1,0-1.4-0.1l-0.2,0c-0.3-0.1-0.5-0.1-0.8-0.2c0,0,0,0,0,0
		c-0.3-0.1-0.5-0.2-0.7-0.2c0,0-0.1,0-0.1,0c-0.2-0.1-0.4-0.2-0.5-0.2c-0.1-0.1-0.2-0.1-0.3-0.2c-0.1-0.1-0.2-0.1-0.4-0.2
		c-0.2-0.1-0.4-0.3-0.6-0.4c0,0,0,0,0,0c-0.6-0.4-1.2-1-1.7-1.5l0,0c-0.2-0.2-0.4-0.5-0.6-0.7c0,0,0,0,0,0c-0.3-0.4-0.5-0.7-0.7-1.1
		c-0.1-0.1-0.1-0.2-0.2-0.3c-0.1-0.1-0.1-0.3-0.2-0.4c-0.1-0.1-0.1-0.3-0.2-0.4c0-0.1-0.1-0.2-0.1-0.3c-0.1-0.2-0.1-0.4-0.2-0.6
		c0-0.1,0-0.1-0.1-0.2c-0.1-0.2-0.1-0.5-0.1-0.7c0-0.1,0-0.1,0-0.2c0-0.2-0.1-0.5-0.1-0.7c0,0,0-0.1,0-0.1c0-0.3,0-0.7,0-1v-9H119
		l0,0C122.8,138.7,131.1,132.2,141.9,132.7z M127.2,159.4c0-0.9,0.2-1.8,0.4-2.7h11.7v2.5c0,0.3,0,0.6,0,1c0,0.1,0,0.2,0,0.3
		c0,0.2,0,0.4,0.1,0.6c0,0.1,0,0.2,0,0.4c0,0.2,0.1,0.4,0.1,0.6c0,0.1,0,0.2,0.1,0.4c0,0.2,0.1,0.4,0.1,0.7c0.1,0.2,0.1,0.5,0.2,0.7
		c0,0.1,0.1,0.2,0.1,0.3c0.1,0.2,0.1,0.4,0.2,0.5c0,0.1,0.1,0.2,0.1,0.3c0.1,0.2,0.1,0.4,0.2,0.6c0,0,0,0.1,0,0.1
		c1.2,2.9,3.2,5.4,5.8,7.2c-1.9,0.9-4.1,1.3-6.3,1.2C132.6,173.7,126.8,167,127.2,159.4z M137.6,224.2v-29.5c0-0.4,0.2-0.8,0.4-1.1
		c3-3,6.6-0.8,6.6,2.2v31.9c0,2.1-1.6,3.8-3.7,3.8H98.1c-0.4,0-0.8-0.2-1-0.4c-2.9-3.1-0.8-6.9,2.1-6.9L137.6,224.2L137.6,224.2z
		 M83.7,219.2L83.7,219.2c0.7-2.6,2.2-4.7,4.4-6c2.2-1.3,4.7-1.6,7.1-0.9l3.3,1l-1.3,4.7c-4.7,0.8-8.3,5-8.3,10.1
		c0,3,1.2,5.7,3.2,7.6l-12.6,44.2l0,0l-0.5,1.9l-2.7,9.3c0,0-0.1-0.1-0.1-0.1c-0.3-0.2-0.6-0.4-0.9-0.6c-0.1-0.1-0.3-0.2-0.4-0.3
		c-3.2-2-6.7-3.5-10.5-4.3L83.7,219.2z M76.1,323.1c0,10.2-7.9,18.5-17.7,18.5s-17.7-8.3-17.7-18.5c0-0.5,0-1,0.1-1.5h6.3
		c-0.1,0.5-0.1,1-0.1,1.5c0,6.6,5.1,11.9,11.5,11.9s11.5-5.4,11.5-11.9c0-0.5,0-1-0.1-1.5h6.3C76.1,322.1,76.1,322.6,76.1,323.1z
		 M63.6,323.1c0,3.2-2.7,5.8-5.9,5.4c-2.1-0.3-3.8-1.9-4.4-4c-0.3-1-0.2-2,0-3h10C63.6,322.1,63.6,322.6,63.6,323.1z M83.9,315.1
		L83.9,315.1H33l0,0l0,0c1.5-13.2,12.4-23.5,25.4-23.5c0.4,0,0.8,0,1.2,0l0.6,0c4,0.3,7.9,1.6,11.3,3.7c0,0,0,0,0,0
		c0.2,0.1,0.5,0.3,0.7,0.4c0.1,0.1,0.2,0.1,0.3,0.2c0.2,0.1,0.3,0.2,0.5,0.3c0.2,0.1,0.3,0.2,0.5,0.4c0.1,0.1,0.2,0.2,0.3,0.2
		c0.2,0.2,0.4,0.3,0.6,0.5c0.1,0.1,0.1,0.1,0.2,0.2c0.2,0.2,0.5,0.4,0.7,0.6c0,0,0.1,0.1,0.1,0.1c0.3,0.2,0.5,0.5,0.7,0.7
		c0,0,0,0,0,0c0.3,0.3,0.5,0.6,0.8,0.8c0,0,0,0,0,0c1,1.1,1.9,2.4,2.8,3.7c0,0,0,0.1,0.1,0.1c0.1,0.2,0.4,0.6,0.5,0.9
		c0,0.1,0.1,0.1,0.1,0.2C82.3,308,83.4,311.4,83.9,315.1L83.9,315.1z M145.9,315.1h-42.7l-17-13.7c0,0,0,0,0,0
		c-0.3-0.5-0.6-0.9-0.7-1.5c-0.1-1.2-0.8-2.1-1.9-2.4c-0.2,0-0.2-0.1-0.2-0.1c-0.3-0.4-0.6-0.7-0.9-1c-0.1-0.2-0.3-0.3-0.4-0.5
		c0,0,0,0,0-0.1l1.4-5l22.9,17.9l0,0h39.4l0,0L145.9,315.1L145.9,315.1z M201.6,323.1c0,10.2-7.9,18.5-17.7,18.5
		c-9.8,0-17.7-8.3-17.7-18.5c0-0.5,0-1,0.1-1.5h6.3c-0.1,0.5-0.1,1-0.1,1.5c0,6.6,5.1,11.9,11.5,11.9c6.3,0,11.5-5.4,11.5-11.9
		c0-0.5,0-1-0.1-1.5h6.3C201.5,322.1,201.6,322.6,201.6,323.1z M189.1,323.1c0,3.2-2.7,5.8-5.9,5.4c-2.1-0.3-3.8-1.9-4.4-4
		c-0.3-1-0.2-2,0-3h10C189,322.1,189.1,322.6,189.1,323.1z M213.5,315.1h-61.9l0,0v-34.1c3.6,3.5,8.3,5.6,13.6,5.6h27.3
		c7.3,0,11.3-5.8,11.5-11.6c0-0.6,0-1.2-0.1-1.8c3.8,2.7,6.7,6.5,8.3,11.2c0.8,2.4,1.2,5,1.2,7.6V315.1 M184.9,262.3L184.9,262.3
		v-32.4h14.5v5.6h6.2v-5.6h8.3v5.6h6.2v-5.6h12.5v32.4H184.9z"/>
		<rect x="226.8" y="282.6" width="12" height="6.5"/>
		<rect x="226.8" y="298.6" width="12" height="6.5"/>
		<rect x="226.8" y="315.1" width="12" height="6.5"/>
		<g>
		<path class="st17" style="fill:#FFFFFF;"  d="M49.9,307.7l-4-5c3.5-3,7.9-4.7,12.4-4.7v6.5C55.2,304.6,52.3,305.7,49.9,307.7z"/>
			<path class="st17" style="fill:#FFFFFF;"  d="M185.3,308.6h-6.2v-6.5h6.2V308.6z M173.3,308.6h-14.9v-16.4h6.2v10h8.7L173.3,308.6L173.3,308.6z"/>
			<rect x="201.1" y="291.7" class="st17" style="fill:#FFFFFF;"  width="6.2" height="10"/>
			<rect x="155.4" y="226" class="st17" style="fill:#FFFFFF;"  width="6.2" height="12.5"/>
			<polygon class="st17" style="fill:#FFFFFF;"  points="226.4,255.8 213.1,255.8 213.1,249.3 220.6,249.3 220.6,241.5 226.4,241.5 		"/>
			<path class="st17" style="fill:#FFFFFF;"  d="M154,159.6L154,159.6c-0.1-2.5-0.8-4.8-2-6.9l5.3-3.4c1.8,3,2.8,6.4,3,9.9l0,0.1l-3.2,0.1L154,159.6z"/>
			<rect x="132.2" y="139.4" class="st17" style="fill:#FFFFFF;"  width="14.1" height="6.5"/>
	</g>
		<g>
	</g>
		<g>
	</g>
		<g>
	</g>
		<g>
	</g>
		<g>
	</g>
		<g>
	</g>
		<g>
	</g>
		<g>
	</g>
		<g>
	</g>
		<g>
	</g>
		<g>
	</g>
		<g>
	</g>
		<g>
	</g>
		<g>
	</g>
		<g>
	</g>
</g>
</svg>
