<?xml version="1.0" encoding="utf-8"?>
<!-- Generator: Adobe Illustrator 23.0.1, SVG Export Plug-In . SVG Version: 6.00 Build 0)  -->
<svg version="1.0" id="Calque_1" xmlns="http://www.w3.org/2000/svg" xmlns:xlink="http://www.w3.org/1999/xlink" x="0px" y="0px"
	 viewBox="0 0 453.5 453.5" style="enable-background:new 0 0 453.5 453.5;" xml:space="preserve">
<g>
	<path class="st0"  style="fill:#FFCC60;" d="M350.2,196.2h-78.4c-3.1,0-5.6,2.8-5.6,6.2v12.4h89.6v-12.4C355.8,199,353.3,196.2,350.2,196.2z"/>
	<g>
		<ellipse class="st1" style="fill:#754C24;"  cx="249.1" cy="344.8" rx="5.6" ry="6.2"/>
		<ellipse class="st1" style="fill:#754C24;"  cx="249.1" cy="270.4" rx="5.6" ry="6.2"/>
		<path class="st0" style="fill:#FFCC60;"  d="M355.8,289.2v-18.6v-43.4h-89.6v111.6h89.6V289.2z M315,318.4c-1.1,1.2-2.5,1.8-4,1.8s-2.9-0.6-4-1.8
			l-22.4-24.8l7.9-8.8l12.8,14.2v-53.2h11.2V299l12.8-14.2l7.9,8.8L315,318.4z"/>
		<ellipse class="st1" style="fill:#754C24;"  cx="249.1" cy="295.2" rx="5.6" ry="6.2"/>
		<ellipse class="st1" style="fill:#754C24;"  cx="249.1" cy="320" rx="5.6" ry="6.2"/>
	</g>
	<g>
		<path class="st0" style="fill:#FFCC60;"  d="M355.8,363.6v-12.4h-89.6v12.4c0,3.4,2.5,6.2,5.6,6.2h78.4C353.3,369.8,355.8,367,355.8,363.6z"/>
		<path class="st2" style="fill:#A6E0B5;"  d="M283.8,134.2h16v-17.7C292,118.7,285.8,125.5,283.8,134.2z"/>
		<path class="st2" style="fill:#A6E0B5;"  d="M299.8,65.1V47.4h-16C285.8,56.1,292,62.9,299.8,65.1z"/>
		<path class="st2" style="fill:#A6E0B5;"  d="M170.2,47.4h-16v17.7C162,62.9,168.2,56.1,170.2,47.4z"/>
		<path class="st2" style="fill:#A6E0B5;"  d="M154.2,116.5v17.7h16C168.2,125.5,162,118.7,154.2,116.5z"/>
	</g>
	<path class="st3" style="fill:#78BA8C;"  d="M181.7,134.2h90.6c2.4-15.5,13.5-27.8,27.5-30.4V77.8c-14-2.6-25.1-14.9-27.5-30.4h-90.6
		c-2.4,15.5-13.5,27.8-27.5,30.4v25.9C168.2,106.4,179.3,118.7,181.7,134.2z M226.7,65.8c12.4,0,22.4,11.1,22.4,24.8
		s-10,24.8-22.4,24.8s-22.4-11.1-22.4-24.8S214.3,65.8,226.7,65.8z"/>
	<ellipse class="st4" style="fill:#EDE7A6;"  cx="226.7" cy="90.6" rx="11.2" ry="12.4"/>
	<path class="st0" style="fill:#FFCC60;"  d="M176.6,196.2H98.2c-3.1,0-5.6,2.8-5.6,6.2v12.4h89.6v-12.4C182.2,199,179.7,196.2,176.6,196.2z"/>
	<path class="st0" style="fill:#FFCC60;"  d="M182.2,289.2v-18.6v-43.4H92.6v111.6h89.6V289.2z M155.8,281.2L143,267v53.2h-11.2V267L119,281.2l-7.9-8.8
		l22.4-24.8c2.2-2.4,5.7-2.4,7.9,0l22.4,24.8L155.8,281.2z"/>
	<path class="st0" style="fill:#FFCC60;"  d="M182.2,363.6v-12.4H92.6v12.4c0,3.4,2.5,6.2,5.6,6.2h78.4C179.7,369.8,182.2,367,182.2,363.6z"/>
	<g>
		<ellipse class="st1" style="fill:#754C24;"  cx="75.5" cy="270.4" rx="5.6" ry="6.2"/>
		<ellipse class="st1" style="fill:#754C24;"  cx="75.5" cy="320" rx="5.6" ry="6.2"/>
		<ellipse class="st1" style="fill:#754C24;"  cx="75.5" cy="344.8" rx="5.6" ry="6.2"/>
		<ellipse class="st1" style="fill:#754C24;"  cx="75.5" cy="295.2" rx="5.6" ry="6.2"/>
		<path class="st1" style="fill:#754C24;"  d="M193.4,270.6v18.6v74.4c0,10.3-7.5,18.6-16.8,18.6h-56V407h89.6V246.6C200.6,249.3,193.4,259.1,193.4,270.6z"
			/>
		<path class="st1" style="fill:#754C24;"  d="M367,270.6v18.6v74.4c0,10.3-7.5,18.6-16.8,18.6h-56V407h89.6V246.6C374.2,249.3,367,259.1,367,270.6z"/>
	</g>
	<g>
		<path class="st5" style="fill:#42342A;"  d="M215.7,233.4c-8.6,0-16.4,3.6-22.3,9.5v-53.1c0-3.3-2.4-6-5.4-6H86.8c-3,0-5.4,2.7-5.4,6v63.3
			c-1.8-0.7-3.6-1.1-5.6-1.1c-9.3,0-16.8,8.3-16.8,18.6c0,4.8,1.7,9.1,4.4,12.4c-2.7,3.3-4.4,7.6-4.4,12.4c0,4.8,1.7,9.1,4.4,12.4
			c-2.7,3.3-4.4,7.6-4.4,12.4c0,4.8,1.7,9.1,4.4,12.4c-2.7,3.3-4.4,7.6-4.4,12.4c0,10.3,7.5,18.6,16.8,18.6c2,0,3.8-0.4,5.6-1.1
			v13.7c0,3.3,2.4,6,5.4,6h22.6V407h5.6h5.6v-24.8h56c9.3,0,16.8-8.3,16.8-18.6v-74.4v-18.6c0-11.5,7.2-21.3,16.8-24V407h5.6h5.6
			V239.6C221.4,236.2,218.9,233.4,215.7,233.4z M75.5,351c-3.1,0-5.6-2.8-5.6-6.2c0-3.4,2.5-6.2,5.6-6.2s5.6,2.8,5.6,6.2
			C81.1,348.2,78.6,351,75.5,351z M75.5,326.2c-3.1,0-5.6-2.8-5.6-6.2s2.5-6.2,5.6-6.2s5.6,2.8,5.6,6.2S78.6,326.2,75.5,326.2z
			 M75.5,301.4c-3.1,0-5.6-2.8-5.6-6.2s2.5-6.2,5.6-6.2s5.6,2.8,5.6,6.2S78.6,301.4,75.5,301.4z M75.5,276.6c-3.1,0-5.6-2.8-5.6-6.2
			c0-3.4,2.5-6.2,5.6-6.2s5.6,2.8,5.6,6.2C81.1,273.8,78.6,276.6,75.5,276.6z M98.2,196.2h78.4c3.1,0,5.6,2.8,5.6,6.2v12.4H92.6
			v-12.4C92.6,199,95.1,196.2,98.2,196.2z M92.6,227.2h89.6v43.4v18.6v49.6H92.6V227.2z M92.6,363.6v-12.4h89.6v12.4
			c0,3.4-2.5,6.2-5.6,6.2H98.2C95.1,369.8,92.6,367,92.6,363.6z"/>
		<path class="st5" style="fill:#42342A;"  d="M389.3,233.4c-8.6,0-16.4,3.6-22.3,9.5v-53.1c0-3.3-2.4-6-5.4-6H260.4c-3,0-5.4,2.7-5.4,6v63.3
			c-1.8-0.7-3.6-1.1-5.6-1.1c-9.3,0-16.8,8.3-16.8,18.6c0,4.8,1.7,9.1,4.4,12.4c-2.7,3.3-4.4,7.6-4.4,12.4c0,4.8,1.7,9.1,4.4,12.4
			c-2.7,3.3-4.4,7.6-4.4,12.4c0,4.8,1.7,9.1,4.4,12.4c-2.7,3.3-4.4,7.6-4.4,12.4c0,10.3,7.5,18.6,16.8,18.6c2,0,3.8-0.4,5.6-1.1
			v13.7c0,3.3,2.4,6,5.4,6H283V407h5.6h5.6v-24.8h56c9.3,0,16.8-8.3,16.8-18.6v-74.4v-18.6c0-11.5,7.2-21.3,16.8-24V407h5.6h5.6
			V239.6C395,236.2,392.5,233.4,389.3,233.4z M249.1,351c-3.1,0-5.6-2.8-5.6-6.2c0-3.4,2.5-6.2,5.6-6.2s5.6,2.8,5.6,6.2
			C254.7,348.2,252.2,351,249.1,351z M249.1,326.2c-3.1,0-5.6-2.8-5.6-6.2s2.5-6.2,5.6-6.2s5.6,2.8,5.6,6.2S252.2,326.2,249.1,326.2
			z M249.1,301.4c-3.1,0-5.6-2.8-5.6-6.2s2.5-6.2,5.6-6.2s5.6,2.8,5.6,6.2S252.2,301.4,249.1,301.4z M249.1,276.6
			c-3.1,0-5.6-2.8-5.6-6.2c0-3.4,2.5-6.2,5.6-6.2s5.6,2.8,5.6,6.2C254.7,273.8,252.2,276.6,249.1,276.6z M271.8,196.2h78.4
			c3.1,0,5.6,2.8,5.6,6.2v12.4h-89.6v-12.4C266.2,199,268.7,196.2,271.8,196.2z M266.2,227.2h89.6v43.4v18.6v49.6h-89.6V227.2z
			 M266.2,363.6v-12.4h89.6v12.4c0,3.4-2.5,6.2-5.6,6.2h-78.4C268.7,369.8,266.2,367,266.2,363.6z"/>
		<path class="st5" style="fill:#42342A;"  d="M148.6,146.6h156.8c3.1,0,5.6-2.8,5.6-6.2V41.2c0-3.4-2.5-6.2-5.6-6.2H148.6c-3.1,0-5.6,2.8-5.6,6.2v99.2
			C143,143.8,145.5,146.6,148.6,146.6z M299.8,134.2h-16c2-8.7,8.2-15.5,16-17.7V134.2z M299.8,47.4v17.7c-7.8-2.3-14-9-16-17.7
			H299.8z M154.2,47.4h16c-2,8.7-8.2,15.5-16,17.7V47.4z M154.2,77.8c14-2.6,25.1-14.9,27.5-30.4h90.6c2.4,15.5,13.5,27.8,27.5,30.4
			v25.9c-14,2.6-25.1,14.9-27.5,30.4h-90.6c-2.4-15.5-13.5-27.8-27.5-30.4V77.8z M154.2,116.5c7.8,2.3,14,9,16,17.7h-16V116.5z"/>
		<rect x="98.2" y="159" class="st5" style="fill:#42342A;"  width="11.2" height="12.4"/>
		<rect x="98.2" y="134.2" class="st5" style="fill:#42342A;"  width="11.2" height="12.4"/>
		<rect x="98.2" y="109.4" class="st5" style="fill:#42342A;"  width="11.2" height="12.4"/>
		<rect x="98.2" y="84.6" class="st5" style="fill:#42342A;"  width="11.2" height="12.4"/>
		<rect x="344.6" y="159" class="st5" style="fill:#42342A;"  width="11.2" height="12.4"/>
		<rect x="344.6" y="134.2" class="st5" style="fill:#42342A;"  width="11.2" height="12.4"/>
		<rect x="344.6" y="109.4" class="st5" style="fill:#42342A;"  width="11.2" height="12.4"/>
		<rect x="344.6" y="84.6" class="st5" style="fill:#42342A;"  width="11.2" height="12.4"/>
		<rect x="322.2" y="84.6" class="st5" style="fill:#42342A;"  width="11.2" height="12.4"/>
		<rect x="120.6" y="84.6" class="st5" style="fill:#42342A;"  width="11.2" height="12.4"/>
		<path class="st5" style="fill:#42342A;"  d="M226.7,115.4c12.4,0,22.4-11.1,22.4-24.8s-10-24.8-22.4-24.8s-22.4,11.1-22.4,24.8S214.3,115.4,226.7,115.4z
			 M226.7,78.2c6.2,0,11.2,5.6,11.2,12.4c0,6.8-5,12.4-11.2,12.4s-11.2-5.6-11.2-12.4S220.5,78.2,226.7,78.2z"/>
		<path class="st5" style="fill:#42342A;"  d="M133.4,247.6L111,272.4l7.9,8.8l12.8-14.2v53.2H143V267l12.8,14.2l7.9-8.8l-22.4-24.8
			C139.2,245.2,135.6,245.2,133.4,247.6z"/>
		<path class="st5" style="fill:#42342A;"  d="M316.6,299v-53.2h-11.2V299l-12.8-14.2l-7.9,8.8l22.4,24.8c1.1,1.2,2.5,1.8,4,1.8s2.9-0.6,4-1.8l22.4-24.8
			l-7.9-8.8L316.6,299z"/>
	</g>
	<g>
	</g>
	<g>
	</g>
	<g>
	</g>
	<g>
	</g>
	<g>
	</g>
	<g>
	</g>
	<g>
	</g>
	<g>
	</g>
	<g>
	</g>
	<g>
	</g>
	<g>
	</g>
	<g>
	</g>
	<g>
	</g>
	<g>
	</g>
	<g>
	</g>
</g>
</svg>
